<svg width="706" height="655" viewBox="0 0 706 655" fill="none" xmlns="http://www.w3.org/2000/svg">
<path d="M562.86 10H540.59C539.902 10.0024 539.243 10.2774 538.758 10.7647C538.272 11.252 538 11.912 538 12.5999V34.8698C538 35.5567 538.273 36.2154 538.759 36.7011C539.244 37.1868 539.903 37.4598 540.59 37.4599H562.86C563.548 37.4602 564.208 37.1877 564.695 36.7022C565.183 36.2167 565.458 35.5578 565.46 34.8698V12.5999C565.458 11.9109 565.183 11.2508 564.696 10.7637C564.209 10.2765 563.549 10.002 562.86 10V10Z" fill="#FF6584"/>
<path d="M562.86 47.95H540.59C539.902 47.9523 539.243 48.2274 538.758 48.7147C538.272 49.2021 538 49.862 538 50.55V72.8199C538 73.5068 538.273 74.1655 538.759 74.6512C539.244 75.1369 539.903 75.4098 540.59 75.4099H562.86C563.548 75.4102 564.208 75.1377 564.695 74.6523C565.183 74.1668 565.458 73.5079 565.46 72.8199V50.55C565.458 49.861 565.183 49.2008 564.696 48.7137C564.209 48.2265 563.549 47.952 562.86 47.95Z" fill="#FF6584"/>
<path d="M562.86 85.8999H540.59C539.902 85.9023 539.243 86.1774 538.758 86.6647C538.272 87.1521 538 87.8121 538 88.5V110.76C537.999 111.101 538.065 111.439 538.195 111.754C538.325 112.069 538.515 112.356 538.756 112.597C538.996 112.838 539.282 113.03 539.597 113.161C539.912 113.292 540.249 113.36 540.59 113.36H562.86C563.549 113.36 564.211 113.086 564.698 112.598C565.186 112.111 565.46 111.449 565.46 110.76V88.5C565.458 87.811 565.183 87.1509 564.696 86.6637C564.209 86.1765 563.549 85.9019 562.86 85.8999V85.8999Z" fill="#E6E6E6"/>
<path d="M562.86 123.85H540.59C539.902 123.852 539.243 124.127 538.758 124.615C538.272 125.102 538 125.762 538 126.45V148.71C537.999 149.051 538.065 149.389 538.195 149.704C538.325 150.019 538.515 150.306 538.756 150.547C538.996 150.789 539.282 150.98 539.597 151.111C539.912 151.242 540.249 151.31 540.59 151.31H562.86C563.549 151.31 564.211 151.036 564.698 150.548C565.186 150.061 565.46 149.399 565.46 148.71V126.45C565.458 125.761 565.183 125.101 564.696 124.614C564.209 124.127 563.549 123.852 562.86 123.85V123.85Z" fill="white"/>
<path d="M562.86 161.8H540.59C540.249 161.8 539.912 161.868 539.597 161.999C539.282 162.13 538.996 162.321 538.756 162.563C538.515 162.804 538.325 163.091 538.195 163.406C538.065 163.721 537.999 164.059 538 164.4V186.66C537.999 187.001 538.065 187.339 538.195 187.654C538.325 187.969 538.515 188.256 538.756 188.497C538.996 188.739 539.282 188.93 539.597 189.061C539.912 189.192 540.249 189.26 540.59 189.26H562.86C563.549 189.26 564.211 188.986 564.698 188.498C565.186 188.011 565.46 187.349 565.46 186.66V164.4C565.46 163.71 565.186 163.049 564.698 162.562C564.211 162.074 563.549 161.8 562.86 161.8Z" fill="#FF6584"/>
<path d="M609.62 10H587.35C586.662 10.0024 586.003 10.2774 585.518 10.7647C585.032 11.252 584.76 11.912 584.76 12.5999V34.8698C584.76 35.5567 585.033 36.2154 585.519 36.7011C586.004 37.1868 586.663 37.4598 587.35 37.4599H609.62C610.308 37.4602 610.968 37.1877 611.455 36.7022C611.943 36.2167 612.218 35.5578 612.22 34.8698V12.5999C612.218 11.9109 611.943 11.2508 611.456 10.7637C610.969 10.2765 610.309 10.002 609.62 10Z" fill="#FF6584"/>
<path d="M609.62 47.95H587.35C586.662 47.9523 586.003 48.2274 585.518 48.7147C585.032 49.2021 584.76 49.862 584.76 50.55V72.8199C584.76 73.5068 585.033 74.1655 585.519 74.6512C586.004 75.1369 586.663 75.4098 587.35 75.4099H609.62C610.308 75.4102 610.968 75.1377 611.455 74.6523C611.943 74.1668 612.218 73.5079 612.22 72.8199V50.55C612.218 49.861 611.943 49.2008 611.456 48.7137C610.969 48.2265 610.309 47.952 609.62 47.95V47.95Z" fill="#FF6584"/>
<path d="M609.62 85.8999H587.35C586.662 85.9023 586.003 86.1774 585.518 86.6647C585.032 87.1521 584.76 87.8121 584.76 88.5V110.76C584.759 111.101 584.825 111.439 584.955 111.754C585.085 112.069 585.275 112.356 585.516 112.597C585.756 112.838 586.042 113.03 586.357 113.161C586.672 113.292 587.009 113.36 587.35 113.36H609.62C610.309 113.36 610.971 113.086 611.458 112.598C611.946 112.111 612.22 111.449 612.22 110.76V88.5C612.218 87.811 611.943 87.1509 611.456 86.6637C610.969 86.1765 610.309 85.9019 609.62 85.8999Z" fill="#E6E6E6"/>
<path d="M609.62 123.85H587.35C586.662 123.852 586.003 124.127 585.518 124.615C585.032 125.102 584.76 125.762 584.76 126.45V148.71C584.759 149.051 584.825 149.389 584.955 149.704C585.085 150.019 585.275 150.306 585.516 150.547C585.756 150.789 586.042 150.98 586.357 151.111C586.672 151.242 587.009 151.31 587.35 151.31H609.62C610.309 151.31 610.971 151.036 611.458 150.548C611.946 150.061 612.22 149.399 612.22 148.71V126.45C612.218 125.761 611.943 125.101 611.456 124.614C610.969 124.127 610.309 123.852 609.62 123.85V123.85Z" fill="#FF6584"/>
<path d="M609.62 161.8H587.35C587.009 161.8 586.672 161.868 586.357 161.999C586.042 162.13 585.756 162.321 585.516 162.563C585.275 162.804 585.085 163.091 584.955 163.406C584.825 163.721 584.759 164.059 584.76 164.4V186.66C584.759 187.001 584.825 187.339 584.955 187.654C585.085 187.969 585.275 188.256 585.516 188.497C585.756 188.739 586.042 188.93 586.357 189.061C586.672 189.192 587.009 189.26 587.35 189.26H609.62C610.309 189.26 610.971 188.986 611.458 188.498C611.946 188.011 612.22 187.349 612.22 186.66V164.4C612.22 163.71 611.946 163.049 611.458 162.562C610.971 162.074 610.309 161.8 609.62 161.8V161.8Z" fill="#FF6584"/>
<path d="M656.38 10H634.11C633.422 10.0024 632.763 10.2774 632.278 10.7647C631.792 11.252 631.52 11.912 631.52 12.5999V34.8698C631.52 35.5567 631.793 36.2154 632.279 36.7011C632.764 37.1868 633.423 37.4598 634.11 37.4599H656.38C657.068 37.4602 657.728 37.1877 658.215 36.7022C658.703 36.2167 658.978 35.5578 658.98 34.8698V12.5999C658.978 11.9109 658.703 11.2508 658.216 10.7637C657.729 10.2765 657.069 10.002 656.38 10V10Z" fill="#E6E6E6"/>
<path d="M656.38 47.95H634.11C633.422 47.9523 632.763 48.2274 632.278 48.7147C631.792 49.2021 631.52 49.862 631.52 50.55V72.8199C631.52 73.5068 631.793 74.1655 632.279 74.6512C632.764 75.1369 633.423 75.4098 634.11 75.4099H656.38C657.068 75.4102 657.728 75.1377 658.215 74.6523C658.703 74.1668 658.978 73.5079 658.98 72.8199V50.55C658.978 49.861 658.703 49.2008 658.216 48.7137C657.729 48.2265 657.069 47.952 656.38 47.95V47.95Z" fill="#FF6584"/>
<path d="M656.38 85.8999H634.11C633.422 85.9023 632.763 86.1774 632.278 86.6647C631.792 87.1521 631.52 87.8121 631.52 88.5V110.76C631.519 111.101 631.585 111.439 631.715 111.754C631.845 112.069 632.035 112.356 632.276 112.597C632.516 112.838 632.802 113.03 633.117 113.161C633.432 113.292 633.769 113.36 634.11 113.36H656.38C657.069 113.36 657.731 113.086 658.218 112.598C658.706 112.111 658.98 111.449 658.98 110.76V88.5C658.978 87.811 658.703 87.1509 658.216 86.6637C657.729 86.1765 657.069 85.9019 656.38 85.8999V85.8999Z" fill="#FF6584"/>
<path d="M656.38 123.85H634.11C633.422 123.852 632.763 124.127 632.278 124.615C631.792 125.102 631.52 125.762 631.52 126.45V148.71C631.519 149.051 631.585 149.389 631.715 149.704C631.845 150.019 632.035 150.306 632.276 150.547C632.516 150.789 632.802 150.98 633.117 151.111C633.432 151.242 633.769 151.31 634.11 151.31H656.38C657.069 151.31 657.731 151.036 658.218 150.548C658.706 150.061 658.98 149.399 658.98 148.71V126.45C658.978 125.761 658.703 125.101 658.216 124.614C657.729 124.127 657.069 123.852 656.38 123.85V123.85Z" fill="#FF6584"/>
<path d="M656.38 161.8H634.11C633.769 161.8 633.432 161.868 633.117 161.999C632.802 162.13 632.516 162.321 632.276 162.563C632.035 162.804 631.845 163.091 631.715 163.406C631.585 163.721 631.519 164.059 631.52 164.4V186.66C631.519 187.001 631.585 187.339 631.715 187.654C631.845 187.969 632.035 188.256 632.276 188.497C632.516 188.739 632.802 188.93 633.117 189.061C633.432 189.192 633.769 189.26 634.11 189.26H656.38C657.069 189.26 657.731 188.986 658.218 188.498C658.706 188.011 658.98 187.349 658.98 186.66V164.4C658.98 163.71 658.706 163.049 658.218 162.562C657.731 162.074 657.069 161.8 656.38 161.8V161.8Z" fill="#E6E6E6"/>
<path d="M703.14 10H680.87C680.182 10.0024 679.523 10.2774 679.038 10.7647C678.552 11.252 678.28 11.912 678.28 12.5999V34.8698C678.28 35.5567 678.553 36.2154 679.039 36.7011C679.524 37.1868 680.183 37.4598 680.87 37.4599H703.14C703.828 37.4602 704.488 37.1877 704.975 36.7022C705.463 36.2167 705.738 35.5578 705.74 34.8698V12.5999C705.738 11.9109 705.463 11.2508 704.976 10.7637C704.489 10.2765 703.829 10.002 703.14 10V10Z" fill="#E6E6E6"/>
<path d="M703.14 47.95H680.87C680.182 47.9524 679.523 48.2274 679.038 48.7147C678.552 49.2021 678.28 49.862 678.28 50.55V72.8199C678.28 73.5068 678.553 74.1655 679.039 74.6512C679.524 75.1369 680.183 75.4098 680.87 75.4099H703.14C703.828 75.4102 704.488 75.1377 704.975 74.6523C705.463 74.1668 705.738 73.5079 705.74 72.8199V50.55C705.738 49.861 705.463 49.2008 704.976 48.7137C704.489 48.2265 703.829 47.952 703.14 47.95V47.95Z" fill="#E6E6E6"/>
<path d="M703.14 85.8999H680.87C680.182 85.9023 679.523 86.1774 679.038 86.6647C678.552 87.1521 678.28 87.8121 678.28 88.5V110.76C678.279 111.101 678.345 111.439 678.475 111.754C678.605 112.069 678.795 112.356 679.036 112.597C679.276 112.838 679.562 113.03 679.877 113.161C680.192 113.292 680.529 113.36 680.87 113.36H703.14C703.829 113.36 704.491 113.086 704.978 112.598C705.466 112.111 705.74 111.449 705.74 110.76V88.5C705.738 87.811 705.463 87.1509 704.976 86.6637C704.489 86.1765 703.829 85.9019 703.14 85.8999V85.8999Z" fill="#FF6584"/>
<path d="M703.14 123.85H680.87C680.182 123.852 679.523 124.127 679.038 124.615C678.552 125.102 678.28 125.762 678.28 126.45V148.71C678.279 149.051 678.345 149.389 678.475 149.704C678.605 150.019 678.795 150.306 679.036 150.547C679.276 150.789 679.562 150.98 679.877 151.111C680.192 151.242 680.529 151.31 680.87 151.31H703.14C703.829 151.31 704.491 151.036 704.978 150.548C705.466 150.061 705.74 149.399 705.74 148.71V126.45C705.738 125.761 705.463 125.101 704.976 124.614C704.489 124.127 703.829 123.852 703.14 123.85V123.85Z" fill="#E6E6E6"/>
<path d="M703.14 161.8H680.87C680.529 161.8 680.192 161.868 679.877 161.999C679.562 162.13 679.276 162.321 679.036 162.563C678.795 162.804 678.605 163.091 678.475 163.406C678.345 163.721 678.279 164.059 678.28 164.4V186.66C678.279 187.001 678.345 187.339 678.475 187.654C678.605 187.969 678.795 188.256 679.036 188.497C679.276 188.739 679.562 188.93 679.877 189.061C680.192 189.192 680.529 189.26 680.87 189.26H703.14C703.829 189.26 704.491 188.986 704.978 188.498C705.466 188.011 705.74 187.349 705.74 186.66V164.4C705.74 163.71 705.466 163.049 704.978 162.562C704.491 162.074 703.829 161.8 703.14 161.8V161.8Z" fill="#E6E6E6"/>
<path d="M293.617 147.471C322.88 147.471 346.603 123.643 346.603 94.2489C346.603 64.8549 322.88 41.0263 293.617 41.0263C264.354 41.0263 240.632 64.8549 240.632 94.2489C240.632 123.643 264.354 147.471 293.617 147.471Z" fill="#FF6584"/>
<path d="M455.847 91.4715C451.073 86.4053 446.032 81.5992 440.747 77.0739C430.425 68.2814 418.997 60.8051 406.259 56.0954C401.464 54.3164 396.509 53.0061 391.462 52.1826C390.856 52.0842 390.259 51.9856 389.653 51.905C389.608 51.9005 389.564 51.9005 389.519 51.905C389.426 51.8785 389.331 51.8605 389.234 51.8513C387.995 51.6901 386.756 51.5648 385.508 51.4753C378.787 51.0265 372.038 51.6368 365.505 53.2839C361.715 54.2445 358.016 55.5388 354.452 57.1519C350.882 58.9078 347.42 60.8782 344.085 63.0524C342.295 64.145 340.45 65.1461 338.559 66.0519C333.037 68.6799 327.192 70.5587 321.177 71.639C317.115 72.371 313.002 72.7782 308.876 72.8567C305.293 72.9284 301.914 73.0537 298.518 74.352C294.894 75.72 291.638 77.9206 289.011 80.7782C286.385 83.6357 284.46 87.0708 283.391 90.8089C283.307 91.1409 283.331 91.4912 283.459 91.8086C283.587 92.126 283.814 92.3938 284.104 92.5728C285.023 93.2354 285.914 93.9875 286.886 94.5784C287.743 94.9715 288.658 95.2225 289.595 95.3216C291.129 95.6439 292.665 95.9573 294.204 96.2618C299.864 97.3899 305.548 98.3897 311.256 99.2612C322.737 101.007 334.283 102.237 345.895 102.95C345.966 102.961 346.037 102.967 346.109 102.968C359.227 103.763 372.377 103.892 385.508 103.353C387.496 103.272 389.475 103.174 391.462 103.058C399.743 102.592 408.003 101.858 416.243 100.855C423.864 99.9238 431.456 98.7688 439.018 97.3899C444.419 96.405 449.8 95.3067 455.161 94.0949C455.421 94.0176 455.657 93.8741 455.846 93.6783C456.035 93.4826 456.171 93.2412 456.24 92.9774C456.309 92.7137 456.309 92.4365 456.24 92.1728C456.171 91.909 456.036 91.6674 455.847 91.4715V91.4715Z" fill="#E6E6E6"/>
<path d="M345.717 162.439C338.046 154.196 329.594 146.723 320.482 140.126C317.46 137.995 314.349 135.989 311.149 134.154C307.226 131.879 303.151 129.878 298.955 128.164C298.019 127.779 297.074 127.412 296.129 127.063C290.761 125.065 285.193 123.66 279.523 122.872C279.478 122.863 279.434 122.872 279.389 122.863C279.3 122.845 279.202 122.827 279.113 122.809C276.364 122.451 273.595 122.281 270.823 122.299C268.835 122.299 266.838 122.407 264.86 122.604C261.662 122.92 258.493 123.471 255.375 124.251C253.833 124.636 252.3 125.084 250.794 125.594C248.596 126.32 246.439 127.163 244.331 128.119C244.295 128.137 244.269 128.146 244.233 128.164C240.694 129.903 237.265 131.858 233.964 134.02C233.893 134.064 233.813 134.109 233.742 134.154C229.993 136.406 226.027 138.272 221.904 139.723C218.365 140.966 214.735 141.93 211.047 142.606C206.986 143.34 202.872 143.744 198.746 143.815C195.162 143.887 191.784 144.012 188.397 145.319C184.771 146.687 181.514 148.887 178.886 151.745C176.258 154.602 174.332 158.037 173.261 161.776C173.179 162.108 173.203 162.458 173.331 162.775C173.46 163.092 173.685 163.36 173.974 163.54C174.892 164.202 175.793 164.946 176.755 165.537C177.612 165.933 178.527 166.184 179.465 166.28C180.998 166.602 182.532 166.924 184.074 167.229C189.734 168.357 195.421 169.354 201.135 170.219C208.97 171.41 216.838 172.362 224.739 173.076C228.482 173.425 232.229 173.711 235.979 173.935C245.597 174.517 255.224 174.744 264.86 174.616C266.847 174.589 268.835 174.544 270.823 174.481C282.625 174.132 294.391 173.243 306.122 171.813C319.197 170.224 332.183 167.968 345.031 165.053C345.29 164.977 345.526 164.834 345.715 164.639C345.904 164.444 346.039 164.203 346.108 163.94C346.177 163.677 346.178 163.401 346.109 163.138C346.04 162.875 345.905 162.634 345.717 162.439V162.439Z" fill="#E6E6E6"/>
<path d="M192.5 17.4649L220 371.127L165 375.67V21.9645C171.554 17.2003 180.962 16.4549 192.5 17.4649Z" fill="#CCCCCC"/>
<path d="M467.5 17.3452L440 328.009L495 332V21.2978C488.446 17.1128 479.038 16.458 467.5 17.3452Z" fill="#CCCCCC"/>
<path d="M493.24 19.5307C490.367 17.442 484.258 16 477.194 16H182.809C172.986 16 165.002 18.7942 165.002 22.232V210.768C164.917 212.512 167.116 214.198 171.138 215.471C173.243 216.127 175.907 216.6 178.848 216.842C180.138 216.948 181.47 217.001 182.809 217H477.194C478.532 217.001 479.865 216.948 481.155 216.842C489.076 216.211 495 213.729 495 210.768V22.232C495.008 21.3063 494.411 20.3889 493.24 19.5307V19.5307ZM489.094 210.768C489.094 213.064 483.754 214.933 477.194 214.933H182.809C177.371 214.933 172.765 213.649 171.359 211.9C171.059 211.53 170.907 211.149 170.908 210.768V22.232C170.908 19.936 176.248 18.0701 182.809 18.0701H477.194C478.401 18.0698 479.599 18.1338 480.73 18.2589C485.566 18.7849 489.094 20.3661 489.094 22.232V210.768Z" fill="#CCCCCC"/>
<path d="M491.733 211.822H164.981V217.808H491.733V211.822Z" fill="#CCCCCC"/>
<path d="M491.733 88.2606H164.981V94.2463H491.733V88.2606Z" fill="#CCCCCC"/>
<path d="M491.733 311.583H164.981V317.569H491.733V311.583Z" fill="#CCCCCC"/>
<path d="M271.015 18.7535H265.056V384.322H271.015V18.7535Z" fill="#CCCCCC"/>
<path d="M391.658 18.7535H385.699V384.322H391.658V18.7535Z" fill="#CCCCCC"/>
<path d="M505.326 382.719V568.542L536.27 619.198L538.625 623.051H660.722L663.189 382.719H505.326Z" fill="#E6E6E6"/>
<path opacity="0.1" d="M505.326 382.719V568.542L536.27 619.198L538.169 382.719H505.326Z" fill="black"/>
<path d="M210.566 377.763V563.587L179.622 614.242L177.267 618.095H55.17L52.703 377.763H210.566Z" fill="#E6E6E6"/>
<path opacity="0.1" d="M210.566 377.763V563.587L179.622 614.242L177.723 377.763H210.566Z" fill="black"/>
<path d="M700.188 374.047V385.196H36.67V369.091L98.335 336.882H645.923L700.188 374.047Z" fill="#E6E6E6"/>
<path opacity="0.1" d="M700.188 374.047V385.196H36.67V369.091L700.188 374.047Z" fill="black"/>
<path d="M131.635 429.794H102.035L89.702 421.122H145.201L131.635 429.794Z" fill="#3F3D56"/>
<path d="M131.635 465.72H102.035L89.702 457.048H145.201L131.635 465.72Z" fill="#3F3D56"/>
<path d="M131.635 516.512H102.035L89.702 507.839H145.201L131.635 516.512Z" fill="#3F3D56"/>
<path d="M131.635 567.303H102.035L89.702 558.632H145.201L131.635 567.303Z" fill="#3F3D56"/>
<path d="M584.257 434.749H613.857L626.19 426.077H570.691L584.257 434.749Z" fill="#3F3D56"/>
<path d="M584.257 470.675H613.857L626.19 462.003H570.691L584.257 470.675Z" fill="#3F3D56"/>
<path d="M584.257 521.467H613.857L626.19 512.795H570.691L584.257 521.467Z" fill="#3F3D56"/>
<path d="M584.257 572.258H613.857L626.19 563.587H570.691L584.257 572.258Z" fill="#3F3D56"/>
<path d="M479.821 129.147C480.695 129.147 481.403 128.436 481.403 127.558C481.403 126.68 480.695 125.969 479.821 125.969C478.947 125.969 478.239 126.68 478.239 127.558C478.239 128.436 478.947 129.147 479.821 129.147Z" fill="#F2F2F2"/>
<path d="M479.821 302.702C483.142 302.702 485.834 299.998 485.834 296.663C485.834 293.327 483.142 290.624 479.821 290.624C476.5 290.624 473.809 293.327 473.809 296.663C473.809 299.998 476.5 302.702 479.821 302.702Z" fill="#F2F2F2"/>
<path d="M83.6614 1.00054C81.9336 0.858037 80.2034 1.24627 78.7002 2.1138C77.2242 3.12912 71.2379 8.84478 70.2883 10.5C66.6576 16.9042 66.7984 18.5442 60.91 22.9407C56.6211 26.0968 51.1683 30.032 51.9021 35.8509C52.2892 37.7726 52.996 39.615 53.9927 41.3007C57.9493 49.3234 68.7463 55.5234 67.6843 64.678C71.6153 58.0676 66.3573 54.7989 70.2883 48.1886C72.1603 45.0406 75.4124 41.4871 78.2388 43.464C79.1852 44.126 79.8066 45.3132 80.792 45.894C83.1432 47.2799 85.6446 44.6304 87.7258 42.7537C94.9027 36.2823 105.109 37.9776 114.04 39.994C118.256 40.9459 122.887 42.1948 125.379 46.2425C128.656 51.5645 122.266 57.3122 120.651 63.3292C120.52 63.8419 120.513 64.379 120.633 64.8946C120.753 65.4103 120.996 65.8891 121.34 66.2901C121.684 66.6911 122.12 67.0024 122.61 67.1973C123.1 67.3923 123.63 67.4651 124.154 67.4095C126.834 67.144 130.008 66.9263 130.167 65.7451C133.539 65.8657 137.67 65.4821 139.114 61.9557C139.556 60.5605 139.789 59.1073 139.807 57.6433C140.337 51.7198 142.84 46.3157 144.498 40.6778C146.156 35.0399 146.877 28.4327 144.079 23.4342C151.5 39.994 140.547 13.8047 139.114 12.5C123.235 -2.93553 103.657 0.977624 83.6614 1.00054Z" fill="#3E2D20"/>
<path d="M71.1377 76.2407C71.1377 76.2407 74.5911 105.148 61.9286 107.461C49.2661 109.773 73.4399 149.087 73.4399 149.087L130.997 156.025L115.5 109.5C115.5 109.5 107.974 106.304 113.73 83.1785C119.485 60.0527 71.1377 76.2407 71.1377 76.2407Z" fill="#E8BEAC"/>
<path d="M36.028 572.866L40.633 636.462H64.806L57.9 572.866H36.028Z" fill="#E8BEAC"/>
<path d="M196.303 452.612L199.756 505.801L226.233 494.239L215.872 450.3L196.303 452.612Z" fill="#E8BEAC"/>
<path d="M14 329.321C14 329.321 15.0974 396.218 21.682 418.133C28.2667 440.048 27.1692 441.201 26.0718 444.662C24.9744 448.122 23.8769 445.815 23.8769 451.582C23.8769 457.349 21.6821 548.468 23.8769 556.542C26.0718 564.616 17.2923 578.457 23.8769 579.61C30.4615 580.764 61.1897 579.61 62.2872 572.69C63.3846 565.769 53.5077 563.463 57.8975 558.849C62.2872 554.235 68.8718 459.656 68.8718 459.656L84.2359 393.912L112.769 359.309H173.128L191.785 435.434C191.785 435.434 184.102 457.349 189.59 457.349C195.077 457.349 228 464.269 228 438.894C228 413.519 217.026 338.548 214.831 336.241C212.636 333.934 215.928 325.86 212.636 322.4C209.344 318.94 170.933 294.718 156.667 290.105C142.4 285.491 122.386 280 122.386 280L14 329.321Z" fill="#2F2E41"/>
<path d="M222.233 476.988C222.233 476.988 204.966 471.207 196.908 488.551C188.85 505.896 192.303 510.521 192.303 510.521C192.303 510.521 218.779 519.771 223.384 515.146C225.387 513.134 231.748 512.435 238.296 512.287C248.269 512.062 250.923 497.89 241.504 494.589C241.223 494.491 240.939 494.405 240.651 494.333C231.442 492.02 222.233 476.988 222.233 476.988Z" fill="#2F2E41"/>
<path d="M97.0382 95.3195C116.111 95.3195 131.572 79.7888 131.572 60.6308C131.572 41.4728 116.111 25.9422 97.0382 25.9422C77.9656 25.9422 62.5042 41.4728 62.5042 60.6308C62.5042 79.7888 77.9656 95.3195 97.0382 95.3195Z" fill="#E8BEAC"/>
<path d="M70.5 106C70.5 106 98.9404 120.877 110.5 107C122.06 93.1235 136.22 176.088 136.22 176.088L142 231.594L133.562 275.828C133.562 275.828 39.4495 313.398 25 316C10.5505 318.602 37 301.844 37 301.844C37 301.844 43.7432 205.575 43.7432 203.841C43.7432 202.106 70.5 106 70.5 106Z" fill="#F2F2F2"/>
<path d="M70 103C70 103 61.1722 93.0722 58.1215 100.013C55.0709 106.954 26.5985 124.306 23.5479 124.306C20.4973 124.306 39.0675 216.932 35 228.5C40 261 2.19363 327.901 13.3792 334.842C24.5648 341.782 16.4298 327.901 27.6154 345.253C38.801 362.605 93.712 362.604 96.7626 355.664C99.8132 348.723 78.459 317.585 83.5433 269C88.6277 220.415 90.6614 132.403 83.5433 123.149C76.4252 113.894 70 103 70 103Z" fill="#545282"/>
<path d="M106 124.51L112.064 103C112.064 103 142.462 117.391 144.316 128.012C146.169 138.632 150.804 212.653 144.316 218.554C137.828 224.454 132.185 240.063 137.089 250.766C143.577 264.927 150.992 280.268 156.553 281.448C162.114 282.628 172.309 290.889 169.529 299.15C166.748 307.41 119.474 295.089 119.474 295.089C119.474 295.089 111.137 270.828 112.064 237.785C112.991 204.743 106 124.51 106 124.51Z" fill="#545282"/>
<path d="M137 236L109.373 288.033C109.373 288.033 69.083 329.659 92.1058 334.285C115.129 338.91 127.791 296.127 127.791 296.127L157.721 253.344L137 236Z" fill="#E8BEAC"/>
<path d="M85.3438 10.0766C83.9518 9.97301 82.5575 10.2446 81.3051 10.8635C80.1726 11.6942 79.2393 12.7686 78.5733 14.0082C75.5029 18.6474 71.5005 22.5903 66.8232 25.5838C63.3318 27.8145 58.893 30.5958 59.4904 34.7086C59.8146 36.0876 60.3917 37.3938 61.1922 38.5605C64.4241 44.2882 65.7108 50.9176 64.8574 57.4453L74.4575 43.4289C75.9814 41.2039 78.6287 38.6923 80.9296 40.0896C81.6999 40.5574 82.2058 41.3966 83.0079 41.8071C84.9219 42.7866 86.9581 40.914 88.6524 39.5875C94.4946 35.0135 96.7299 42.0037 104 43.4289C107.432 44.1017 114.971 40.5679 117 43.4289C124.5 43 112.5 30.8887 118 46C117.5 47 135.006 51.2846 133 54.5C135.842 49.9439 132.893 56.6669 133 56C135.745 56.0852 131.824 56.9925 133 54.5C135.515 54.5 131.033 51.152 131.049 50.1113C131.48 45.9246 133.518 42.105 134.867 38.1202C136.217 34.1354 136.804 29.4655 134.526 25.9325C133.693 24.7355 132.687 23.6694 131.542 22.7693C118.616 11.8596 101.621 10.0604 85.3438 10.0766Z" fill="#3E2D20"/>
<path d="M134.288 123L143.941 125.869C143.941 125.869 166.404 190.292 161.224 234.379C156.044 278.467 152.936 269.185 152.936 269.185C152.936 269.185 144.648 248.302 126 252.942L134.288 123Z" fill="#545282"/>
<path d="M37.6228 609.057C34.8469 612.846 35.4035 618.263 32.9446 622.267C30.8131 625.738 26.7962 627.557 24.1302 630.633C23.2795 631.655 22.5211 632.75 21.864 633.907C19.3909 638.068 17.3807 643.401 19.8164 647.585C21.7758 650.95 25.8943 652.265 29.6714 653.162C34.4455 654.295 39.4058 655.201 44.2349 654.336C49.0641 653.47 53.7838 650.499 55.5056 645.885C55.844 644.725 56.2463 643.585 56.7107 642.47C59.3282 637.294 67.5382 637.238 70.217 632.093C72.0916 628.493 70.3684 624.142 68.6458 620.466L63.3847 609.239C61.6388 605.513 54.5611 607.655 50.8713 606.763C46.0591 605.598 41.0847 604.315 37.6228 609.057Z" fill="#2F2E41"/>
<path d="M3 268.094L51.3477 343.253C51.3477 343.253 81.2773 381.41 90.4863 364.066C99.6954 346.722 58.2545 317.814 58.2545 317.814L27.1738 260L3 268.094Z" fill="#E8BEAC"/>
<path d="M29.5722 127.317L21.6476 125C21.6476 125 5.7984 130.793 1.83611 155.126C-2.12618 179.458 0.845531 276.788 5.7984 277.947C10.7513 279.105 30.2606 261 33.3834 264.838C36.5062 268.677 26.6004 248.979 29.5721 238.551C32.5438 228.123 29.5722 127.317 29.5722 127.317Z" fill="#545282"/>
<path d="M145.313 72.8097L146.463 62.6332C146.76 60.0655 146.346 57.4436 145.295 55.2316C144.623 53.7948 143.709 52.5743 142.621 51.6623C141.533 50.7504 140.3 50.1708 139.015 49.9675L137.326 49.6489C136.865 49.5584 136.394 49.5875 135.942 49.7346C135.49 49.8817 135.064 50.1438 134.691 50.5058C134.316 50.8654 133.999 51.3178 133.759 51.8371C133.52 52.3563 133.362 52.9321 133.295 53.5311L130.652 76.9756C130.546 77.9315 130.674 78.9071 131.018 79.7642C131.363 80.6214 131.906 81.3166 132.572 81.7516C132.768 81.8838 132.974 81.9902 133.187 82.0693C133.34 82.1264 133.496 82.17 133.653 82.1998L135.539 82.5635C136.689 82.7874 137.862 82.7043 138.985 82.3193C140.109 81.9342 141.159 81.2553 142.073 80.3242C142.27 80.1211 142.463 79.9092 142.647 79.6867C144.108 77.8498 145.047 75.4267 145.313 72.8097Z" fill="#170707"/>
<path d="M136.187 49.6668C135.644 49.7885 135.131 50.0761 134.691 50.5057C134.316 50.8653 133.999 51.3177 133.759 51.837C133.52 52.3562 133.362 52.932 133.295 53.531L130.652 76.9754C130.546 77.9313 130.674 78.9069 131.018 79.7641C131.363 80.6212 131.906 81.3164 132.572 81.7514L136.187 49.6668Z" fill="white"/>
<path d="M145.313 72.8096L146.463 62.6332C146.76 60.0655 146.346 57.4436 145.295 55.2316L142.667 78.5578C142.622 78.9313 142.616 79.3108 142.647 79.6867C144.108 77.8498 145.047 75.4267 145.313 72.8096V72.8096Z" fill="#3F3D56"/>
<path d="M135.668 76.8422C136.405 76.9831 137.248 74.9265 137.55 72.2487C137.852 69.5709 137.498 67.2859 136.761 67.145C136.023 67.0042 135.18 69.0607 134.878 71.7385C134.576 74.4163 134.93 76.7013 135.668 76.8422Z" fill="#3F3D56"/>
<path d="M136.796 64.1518C137.534 64.2927 138.377 62.2361 138.678 59.5583C138.98 56.8805 138.627 54.5955 137.889 54.4546C137.151 54.3138 136.309 56.3703 136.007 59.0481C135.705 61.7259 136.058 64.0109 136.796 64.1518Z" fill="#3F3D56"/>
<path d="M145.613 72.5507C146.35 72.6916 147.193 70.635 147.495 67.9572C147.797 65.2794 147.443 62.9944 146.706 62.8535C145.968 62.7126 145.125 64.7692 144.823 67.447C144.522 70.1248 144.875 72.4098 145.613 72.5507Z" fill="#3F3D56"/>
<path d="M62.4689 64.703L63.2484 41.6758C63.2782 40.8457 63.1181 40.0223 62.7883 39.3092C62.4585 38.596 61.9736 38.0249 61.3946 37.6675C61.2305 37.5686 61.061 37.4857 60.8875 37.4194C60.6424 37.329 60.39 37.2761 60.1355 37.2619L58.4815 37.1674C56.3518 37.0464 54.273 38.0257 52.7013 39.8904C51.1296 41.7551 50.1934 44.3529 50.0982 47.1138L49.7463 57.4431C49.6507 59.8702 50.1725 62.2717 51.2316 64.2786C51.4045 64.5983 51.5918 64.9043 51.7927 65.1952C52.5059 66.2274 53.3713 67.0641 54.3376 67.656C55.304 68.2479 56.3518 68.5828 57.4192 68.6412L59.068 68.7337C59.5029 68.763 59.9377 68.6751 60.3449 68.4758C60.9478 68.1913 61.4717 67.6807 61.8499 67.0089C62.2281 66.3371 62.4436 65.5344 62.4689 64.703Z" fill="#170707"/>
<path d="M54.0059 57.5616C54.7508 57.605 55.4287 55.4482 55.5201 52.7442C55.6114 50.0403 55.0816 47.8131 54.3368 47.7696C53.5919 47.7262 52.914 49.883 52.8226 52.587C52.7313 55.2909 53.2611 57.5182 54.0059 57.5616Z" fill="#3F3D56"/>
<path d="M48.3683 57.6372C49.1132 57.6806 49.7911 55.5238 49.8825 52.8199C49.9738 50.1159 49.444 47.8887 48.6991 47.8453C47.9543 47.8018 47.2764 49.9586 47.185 52.6626C47.0937 55.3666 47.6235 57.5938 48.3683 57.6372Z" fill="#3F3D56"/>
<path d="M61.7674 64.7173L62.5469 41.6903C62.5776 40.7915 62.4032 39.9007 62.0454 39.1293C61.6876 38.3578 61.1624 37.7401 60.5355 37.3534L59.4673 68.803C60.1194 68.4933 60.6859 67.9399 61.0952 67.2128C61.5046 66.4856 61.7385 65.6173 61.7674 64.7173V64.7173Z" fill="white"/>
<path d="M50.9734 43.187C50.9959 42.547 50.9135 41.9078 50.7317 41.3118C49.7517 42.9871 49.1909 45.0117 49.1244 47.1137L48.7725 57.443C48.6769 59.87 49.1988 62.2715 50.2578 64.2784L50.9734 43.187Z" fill="#3F3D56"/>
<path d="M584.339 224.649H500.647V224.23C500.647 223.904 500.511 223.591 500.27 223.36C500.029 223.13 499.702 223 499.36 223H463.985C463.643 223 463.316 223.13 463.075 223.36C462.834 223.591 462.698 223.904 462.698 224.23V224.649H378.661C377.16 224.649 375.72 225.219 374.658 226.233C373.596 227.248 373 228.624 373 230.059V339.589C373 341.024 373.596 342.401 374.658 343.415C375.72 344.43 377.16 345 378.661 345H584.339C585.84 345 587.28 344.43 588.342 343.415C589.404 342.401 590 341.024 590 339.589V230.059C590 228.624 589.404 227.248 588.342 226.233C587.28 225.219 585.84 224.649 584.339 224.649Z" fill="#3F3D56"/>
<path d="M382.53 236C382.39 236 382.255 236.054 382.155 236.149C382.056 236.244 382 236.373 382 236.507V340.493C382 340.628 382.056 340.756 382.156 340.851C382.255 340.946 382.39 341 382.53 341H579.47C579.61 341 579.745 340.946 579.845 340.851C579.944 340.756 580 340.628 580 340.493V288.5V236.507C580 236.373 579.944 236.244 579.845 236.149C579.745 236.054 579.61 236 579.47 236H382.53Z" fill="#F2F2F2"/>
<path d="M481 231C482.105 231 483 230.105 483 229C483 227.895 482.105 227 481 227C479.895 227 479 227.895 479 229C479 230.105 479.895 231 481 231Z" fill="#605959"/>
<path d="M587.645 338.479H569.111V335.315C569.111 335.141 568.993 335 568.846 335H562.492C562.345 335 562.227 335.141 562.227 335.315V338.479H558.255V335.315C558.255 335.141 558.137 335 557.991 335H551.636C551.49 335 551.371 335.141 551.371 335.315V338.479H547.4V335.315C547.4 335.141 547.281 335 547.135 335H540.78C540.634 335 540.515 335.141 540.515 335.315V338.479H536.544V335.315C536.544 335.141 536.425 335 536.279 335H529.924C529.778 335 529.66 335.141 529.66 335.315V338.479H525.688V335.315C525.688 335.141 525.569 335 525.423 335H519.069C518.922 335 518.804 335.141 518.804 335.315V338.479H514.832V335.315C514.832 335.141 514.714 335 514.567 335H508.213C508.067 335 507.948 335.141 507.948 335.315V338.479H503.976V335.315C503.976 335.141 503.858 335 503.712 335H453.934C453.788 335 453.669 335.141 453.669 335.315V338.479H449.697V335.315C449.697 335.141 449.579 335 449.433 335H443.078C442.932 335 442.813 335.141 442.813 335.315V338.479H438.842V335.315C438.842 335.141 438.723 335 438.577 335H432.222C432.076 335 431.957 335.141 431.957 335.315V338.479H427.986V335.315C427.986 335.141 427.867 335 427.721 335H421.366C421.22 335 421.102 335.141 421.102 335.315V338.479H417.13V335.315C417.13 335.141 417.011 335 416.865 335H410.511C410.364 335 410.246 335.141 410.246 335.315V338.479H406.274V335.315C406.274 335.141 406.156 335 406.009 335H399.655C399.509 335 399.39 335.141 399.39 335.315V338.479H395.418V335.315C395.418 335.141 395.3 335 395.154 335H388.799C388.653 335 388.534 335.141 388.534 335.315V338.479H376.355C372.845 338.479 370 341.861 370 346.032V349.447C370 353.619 372.845 357 376.355 357H587.645C591.155 357 594 353.619 594 349.447V346.032C594 341.861 591.155 338.479 587.645 338.479Z" fill="#3F3D56"/>
<path d="M459.236 257.249H434.858V264.29H459.236V257.249Z" fill="#4E3F3F"/>
<path d="M543.653 257.249H535.076V264.29H543.653V257.249Z" fill="#4E3F3F"/>
<path d="M560.808 257.249H552.231V264.29H560.808V257.249Z" fill="#4E3F3F"/>
<path d="M526.048 257.249H467.813V264.29H526.048V257.249Z" fill="#4E3F3F"/>
<path d="M428.538 302.748H404.161V309.79H428.538V302.748Z" fill="#4E3F3F"/>
<path d="M512.956 302.748H504.379V309.79H512.956V302.748Z" fill="#4E3F3F"/>
<path d="M530.11 302.748H521.533V309.79H530.11V302.748Z" fill="#4E3F3F"/>
<path d="M495.35 302.748H437.115V309.79H495.35V302.748Z" fill="#4E3F3F"/>
<path d="M529.208 272.957H504.83V279.998H529.208V272.957Z" fill="#4E3F3F"/>
<path d="M562.162 272.957H537.785V279.998H562.162V272.957Z" fill="#4E3F3F"/>
<path d="M412.738 272.957H404.161V279.998H412.738V272.957Z" fill="#4E3F3F"/>
<path d="M429.893 272.957H421.315V279.998H429.893V272.957Z" fill="#4E3F3F"/>
<path d="M496.705 272.957H438.47V279.998H496.705V272.957Z" fill="#4E3F3F"/>
<path d="M478.647 288.123H454.27V295.165H478.647V288.123Z" fill="#4E3F3F"/>
<path d="M445.693 288.123H421.315V295.165H445.693V288.123Z" fill="#4E3F3F"/>
<path d="M412.738 288.123H404.161V295.165H412.738V288.123Z" fill="#4E3F3F"/>
<path d="M562.162 288.123H553.585V295.165H562.162V288.123Z" fill="#4E3F3F"/>
<path d="M545.008 288.123H486.773V295.165H545.008V288.123Z" fill="#4E3F3F"/>
</svg>
