<?xml version="1.0" encoding="UTF-8" standalone="no" ?>
<!DOCTYPE svg PUBLIC "-//W3C//DTD SVG 1.1//EN" "http://www.w3.org/Graphics/SVG/1.1/DTD/svg11.dtd">
<svg xmlns="http://www.w3.org/2000/svg" xmlns:xlink="http://www.w3.org/1999/xlink" version="1.1" width="1080" height="1080" viewBox="0 0 1080 1080" xml:space="preserve">
<desc>Created with Fabric.js 5.2.4</desc>
<defs>
</defs>
<g transform="matrix(1 0 0 1 540 540)" id="524d1f68-92be-4061-94bc-ae3912e8b2c2"  >
</g>
<g transform="matrix(1 0 0 1 540 540)" id="60ef16df-0d29-48b9-a8dd-32e75f2b61d7"  >
<rect style="stroke: none; stroke-width: 1; stroke-dasharray: none; stroke-linecap: butt; stroke-dashoffset: 0; stroke-linejoin: miter; stroke-miterlimit: 4; fill: rgb(255,255,255); fill-rule: nonzero; opacity: 1; visibility: hidden;" vector-effect="non-scaling-stroke"  x="-540" y="-540" rx="0" ry="0" width="1080" height="1080" />
</g>
<g transform="matrix(1 0 0 1 792.35 149.23)"  >
<path style="stroke: none; stroke-width: 1; stroke-dasharray: none; stroke-linecap: butt; stroke-dashoffset: 0; stroke-linejoin: miter; stroke-miterlimit: 4; fill: rgb(255,101,132); fill-rule: nonzero; opacity: 1;" vector-effect="non-scaling-stroke"  transform=" translate(-539.73, -14.19)" d="M 550.86 0.458618 L 528.59 0.458618 C 527.902 0.461 527.243 0.735995 526.758 1.22333 C 526.272 1.71066 526 2.37058 526 3.05847 L 526 25.3285 C 526 26.0153 526.273 26.6741 526.759 27.1598 C 527.244 27.6455 527.903 27.9184 528.59 27.9185 L 550.86 27.9185 C 551.548 27.9188 552.208 27.6463 552.695 27.1608 C 553.183 26.6753 553.458 26.0164 553.46 25.3285 L 553.46 3.05847 C 553.458 2.36954 553.183 1.70942 552.696 1.22229 C 552.209 0.735164 551.549 0.46062 550.86 0.458618 L 550.86 0.458618 Z" stroke-linecap="round" />
</g>
<g transform="matrix(1 0 0 1 792.35 187.18)"  >
<path style="stroke: none; stroke-width: 1; stroke-dasharray: none; stroke-linecap: butt; stroke-dashoffset: 0; stroke-linejoin: miter; stroke-miterlimit: 4; fill: rgb(255,101,132); fill-rule: nonzero; opacity: 1;" vector-effect="non-scaling-stroke"  transform=" translate(-539.73, -52.14)" d="M 550.86 38.4086 L 528.59 38.4086 C 527.902 38.411 527.243 38.686 526.758 39.1733 C 526.272 39.6607 526 40.3207 526 41.0086 L 526 63.2786 C 526 63.9654 526.273 64.6241 526.759 65.1098 C 527.244 65.5955 527.903 65.8684 528.59 65.8686 L 550.86 65.8686 C 551.548 65.8688 552.208 65.5964 552.695 65.1109 C 553.183 64.6254 553.458 63.9665 553.46 63.2786 L 553.46 41.0086 C 553.458 40.3196 553.183 39.6595 552.696 39.1723 C 552.209 38.6851 551.549 38.4106 550.86 38.4086 Z" stroke-linecap="round" />
</g>
<g transform="matrix(1 0 0 1 792.35 225.13)"  >
<path style="stroke: none; stroke-width: 1; stroke-dasharray: none; stroke-linecap: butt; stroke-dashoffset: 0; stroke-linejoin: miter; stroke-miterlimit: 4; fill: rgb(230,230,230); fill-rule: nonzero; opacity: 1;" vector-effect="non-scaling-stroke"  transform=" translate(-539.73, -90.09)" d="M 550.86 76.3585 L 528.59 76.3585 C 527.902 76.3609 527.243 76.636 526.758 77.1234 C 526.272 77.6107 526 78.2707 526 78.9586 L 526 101.219 C 525.999 101.559 526.065 101.897 526.195 102.212 C 526.325 102.528 526.515 102.814 526.756 103.056 C 526.996 103.297 527.282 103.489 527.597 103.62 C 527.912 103.751 528.249 103.818 528.59 103.818 L 550.86 103.818 C 551.549 103.818 552.211 103.544 552.698 103.057 C 553.186 102.569 553.46 101.908 553.46 101.219 L 553.46 78.9586 C 553.458 78.2697 553.183 77.6095 552.696 77.1223 C 552.209 76.6351 551.549 76.3606 550.86 76.3585 L 550.86 76.3585 Z" stroke-linecap="round" />
</g>
<g transform="matrix(1 0 0 1 792.35 263.08)"  >
<path style="stroke: none; stroke-width: 1; stroke-dasharray: none; stroke-linecap: butt; stroke-dashoffset: 0; stroke-linejoin: miter; stroke-miterlimit: 4; fill: rgb(255,255,255); fill-rule: nonzero; opacity: 1;" vector-effect="non-scaling-stroke"  transform=" translate(-539.73, -128.04)" d="M 550.86 114.308 L 528.59 114.308 C 527.902 114.311 527.243 114.586 526.758 115.073 C 526.272 115.561 526 116.221 526 116.909 L 526 139.169 C 525.999 139.509 526.065 139.847 526.195 140.162 C 526.325 140.478 526.515 140.764 526.756 141.006 C 526.996 141.247 527.282 141.439 527.597 141.57 C 527.912 141.701 528.249 141.768 528.59 141.769 L 550.86 141.769 C 551.549 141.768 552.211 141.494 552.698 141.007 C 553.186 140.519 553.46 139.858 553.46 139.169 L 553.46 116.909 C 553.458 116.22 553.183 115.559 552.696 115.072 C 552.209 114.585 551.549 114.311 550.86 114.308 L 550.86 114.308 Z" stroke-linecap="round" />
</g>
<g transform="matrix(1 0 0 1 792.35 301.03)"  >
<path style="stroke: none; stroke-width: 1; stroke-dasharray: none; stroke-linecap: butt; stroke-dashoffset: 0; stroke-linejoin: miter; stroke-miterlimit: 4; fill: rgb(255,101,132); fill-rule: nonzero; opacity: 1;" vector-effect="non-scaling-stroke"  transform=" translate(-539.73, -165.99)" d="M 550.86 152.259 L 528.59 152.259 C 528.249 152.259 527.912 152.326 527.597 152.457 C 527.282 152.588 526.996 152.78 526.756 153.021 C 526.515 153.263 526.325 153.55 526.195 153.865 C 526.065 154.18 525.999 154.518 526 154.859 L 526 177.119 C 525.999 177.459 526.065 177.797 526.195 178.112 C 526.325 178.428 526.515 178.714 526.756 178.956 C 526.996 179.197 527.282 179.389 527.597 179.52 C 527.912 179.651 528.249 179.718 528.59 179.719 L 550.86 179.719 C 551.549 179.718 552.211 179.444 552.698 178.957 C 553.186 178.469 553.46 177.808 553.46 177.119 L 553.46 154.859 C 553.46 154.169 553.186 153.508 552.698 153.02 C 552.211 152.533 551.549 152.259 550.86 152.259 Z" stroke-linecap="round" />
</g>
<g transform="matrix(1 0 0 1 839.11 149.23)"  >
<path style="stroke: none; stroke-width: 1; stroke-dasharray: none; stroke-linecap: butt; stroke-dashoffset: 0; stroke-linejoin: miter; stroke-miterlimit: 4; fill: rgb(255,101,132); fill-rule: nonzero; opacity: 1;" vector-effect="non-scaling-stroke"  transform=" translate(-586.49, -14.19)" d="M 597.62 0.458618 L 575.35 0.458618 C 574.662 0.461 574.003 0.735995 573.518 1.22333 C 573.032 1.71066 572.76 2.37058 572.76 3.05847 L 572.76 25.3285 C 572.76 26.0153 573.033 26.6741 573.519 27.1598 C 574.004 27.6455 574.663 27.9184 575.35 27.9185 L 597.62 27.9185 C 598.308 27.9188 598.968 27.6463 599.455 27.1608 C 599.943 26.6753 600.218 26.0164 600.22 25.3285 L 600.22 3.05847 C 600.218 2.36955 599.943 1.70942 599.456 1.22229 C 598.969 0.735161 598.309 0.46062 597.62 0.458618 Z" stroke-linecap="round" />
</g>
<g transform="matrix(1 0 0 1 839.11 187.18)"  >
<path style="stroke: none; stroke-width: 1; stroke-dasharray: none; stroke-linecap: butt; stroke-dashoffset: 0; stroke-linejoin: miter; stroke-miterlimit: 4; fill: rgb(255,101,132); fill-rule: nonzero; opacity: 1;" vector-effect="non-scaling-stroke"  transform=" translate(-586.49, -52.14)" d="M 597.62 38.4086 L 575.35 38.4086 C 574.662 38.411 574.003 38.686 573.518 39.1733 C 573.032 39.6607 572.76 40.3207 572.76 41.0086 L 572.76 63.2786 C 572.76 63.9654 573.033 64.6241 573.519 65.1098 C 574.004 65.5955 574.663 65.8684 575.35 65.8686 L 597.62 65.8686 C 598.308 65.8688 598.968 65.5964 599.455 65.1109 C 599.943 64.6254 600.218 63.9665 600.22 63.2786 L 600.22 41.0086 C 600.218 40.3196 599.943 39.6595 599.456 39.1723 C 598.969 38.6851 598.309 38.4106 597.62 38.4086 L 597.62 38.4086 Z" stroke-linecap="round" />
</g>
<g transform="matrix(1 0 0 1 839.11 225.13)"  >
<path style="stroke: none; stroke-width: 1; stroke-dasharray: none; stroke-linecap: butt; stroke-dashoffset: 0; stroke-linejoin: miter; stroke-miterlimit: 4; fill: rgb(230,230,230); fill-rule: nonzero; opacity: 1;" vector-effect="non-scaling-stroke"  transform=" translate(-586.49, -90.09)" d="M 597.62 76.3585 L 575.35 76.3585 C 574.662 76.3609 574.003 76.636 573.518 77.1234 C 573.032 77.6107 572.76 78.2707 572.76 78.9586 L 572.76 101.219 C 572.759 101.559 572.825 101.897 572.955 102.212 C 573.085 102.528 573.275 102.814 573.516 103.056 C 573.756 103.297 574.042 103.489 574.357 103.62 C 574.672 103.751 575.009 103.818 575.35 103.818 L 597.62 103.818 C 598.309 103.818 598.971 103.544 599.458 103.057 C 599.946 102.569 600.22 101.908 600.22 101.219 L 600.22 78.9586 C 600.218 78.2697 599.943 77.6095 599.456 77.1223 C 598.969 76.6351 598.309 76.3606 597.62 76.3585 Z" stroke-linecap="round" />
</g>
<g transform="matrix(1 0 0 1 839.11 263.08)"  >
<path style="stroke: none; stroke-width: 1; stroke-dasharray: none; stroke-linecap: butt; stroke-dashoffset: 0; stroke-linejoin: miter; stroke-miterlimit: 4; fill: rgb(255,101,132); fill-rule: nonzero; opacity: 1;" vector-effect="non-scaling-stroke"  transform=" translate(-586.49, -128.04)" d="M 597.62 114.308 L 575.35 114.308 C 574.662 114.311 574.003 114.586 573.518 115.073 C 573.032 115.561 572.76 116.221 572.76 116.909 L 572.76 139.169 C 572.759 139.509 572.825 139.847 572.955 140.162 C 573.085 140.478 573.275 140.764 573.516 141.006 C 573.756 141.247 574.042 141.439 574.357 141.57 C 574.672 141.701 575.009 141.768 575.35 141.769 L 597.62 141.769 C 598.309 141.768 598.971 141.494 599.458 141.007 C 599.946 140.519 600.22 139.858 600.22 139.169 L 600.22 116.909 C 600.218 116.22 599.943 115.559 599.456 115.072 C 598.969 114.585 598.309 114.311 597.62 114.308 L 597.62 114.308 Z" stroke-linecap="round" />
</g>
<g transform="matrix(1 0 0 1 839.11 301.03)"  >
<path style="stroke: none; stroke-width: 1; stroke-dasharray: none; stroke-linecap: butt; stroke-dashoffset: 0; stroke-linejoin: miter; stroke-miterlimit: 4; fill: rgb(255,101,132); fill-rule: nonzero; opacity: 1;" vector-effect="non-scaling-stroke"  transform=" translate(-586.49, -165.99)" d="M 597.62 152.259 L 575.35 152.259 C 575.009 152.259 574.672 152.326 574.357 152.457 C 574.042 152.588 573.756 152.78 573.516 153.021 C 573.275 153.263 573.085 153.55 572.955 153.865 C 572.825 154.18 572.759 154.518 572.76 154.859 L 572.76 177.119 C 572.759 177.459 572.825 177.797 572.955 178.112 C 573.085 178.428 573.275 178.714 573.516 178.956 C 573.756 179.197 574.042 179.389 574.357 179.52 C 574.672 179.651 575.009 179.718 575.35 179.719 L 597.62 179.719 C 598.309 179.718 598.971 179.444 599.458 178.957 C 599.946 178.469 600.22 177.808 600.22 177.119 L 600.22 154.859 C 600.22 154.169 599.946 153.508 599.458 153.02 C 598.971 152.533 598.309 152.259 597.62 152.259 L 597.62 152.259 Z" stroke-linecap="round" />
</g>
<g transform="matrix(1 0 0 1 885.86 149.23)"  >
<path style="stroke: none; stroke-width: 1; stroke-dasharray: none; stroke-linecap: butt; stroke-dashoffset: 0; stroke-linejoin: miter; stroke-miterlimit: 4; fill: rgb(230,230,230); fill-rule: nonzero; opacity: 1;" vector-effect="non-scaling-stroke"  transform=" translate(-633.25, -14.19)" d="M 644.38 0.458618 L 622.11 0.458618 C 621.422 0.461 620.763 0.735995 620.278 1.22333 C 619.792 1.71066 619.52 2.37058 619.52 3.05847 L 619.52 25.3285 C 619.52 26.0153 619.793 26.6741 620.279 27.1598 C 620.764 27.6455 621.423 27.9184 622.11 27.9185 L 644.38 27.9185 C 645.068 27.9188 645.728 27.6463 646.215 27.1608 C 646.703 26.6753 646.978 26.0164 646.98 25.3285 L 646.98 3.05847 C 646.978 2.36955 646.703 1.70942 646.216 1.22229 C 645.729 0.735161 645.069 0.46062 644.38 0.458618 L 644.38 0.458618 Z" stroke-linecap="round" />
</g>
<g transform="matrix(1 0 0 1 885.86 187.18)"  >
<path style="stroke: none; stroke-width: 1; stroke-dasharray: none; stroke-linecap: butt; stroke-dashoffset: 0; stroke-linejoin: miter; stroke-miterlimit: 4; fill: rgb(255,101,132); fill-rule: nonzero; opacity: 1;" vector-effect="non-scaling-stroke"  transform=" translate(-633.25, -52.14)" d="M 644.38 38.4086 L 622.11 38.4086 C 621.422 38.411 620.763 38.686 620.278 39.1733 C 619.792 39.6607 619.52 40.3207 619.52 41.0086 L 619.52 63.2786 C 619.52 63.9654 619.793 64.6241 620.279 65.1098 C 620.764 65.5955 621.423 65.8684 622.11 65.8686 L 644.38 65.8686 C 645.068 65.8688 645.728 65.5964 646.215 65.1109 C 646.703 64.6254 646.978 63.9665 646.98 63.2786 L 646.98 41.0086 C 646.978 40.3196 646.703 39.6595 646.216 39.1723 C 645.729 38.6851 645.069 38.4106 644.38 38.4086 L 644.38 38.4086 Z" stroke-linecap="round" />
</g>
<g transform="matrix(1 0 0 1 885.86 225.13)"  >
<path style="stroke: none; stroke-width: 1; stroke-dasharray: none; stroke-linecap: butt; stroke-dashoffset: 0; stroke-linejoin: miter; stroke-miterlimit: 4; fill: rgb(255,101,132); fill-rule: nonzero; opacity: 1;" vector-effect="non-scaling-stroke"  transform=" translate(-633.25, -90.09)" d="M 644.38 76.3585 L 622.11 76.3585 C 621.422 76.3609 620.763 76.636 620.278 77.1234 C 619.792 77.6107 619.52 78.2707 619.52 78.9586 L 619.52 101.219 C 619.519 101.559 619.585 101.897 619.715 102.212 C 619.845 102.528 620.035 102.814 620.276 103.056 C 620.516 103.297 620.802 103.489 621.117 103.62 C 621.432 103.751 621.769 103.818 622.11 103.818 L 644.38 103.818 C 645.069 103.818 645.731 103.544 646.218 103.057 C 646.706 102.569 646.98 101.908 646.98 101.219 L 646.98 78.9586 C 646.978 78.2697 646.703 77.6095 646.216 77.1223 C 645.729 76.6351 645.069 76.3606 644.38 76.3585 L 644.38 76.3585 Z" stroke-linecap="round" />
</g>
<g transform="matrix(1 0 0 1 885.86 263.08)"  >
<path style="stroke: none; stroke-width: 1; stroke-dasharray: none; stroke-linecap: butt; stroke-dashoffset: 0; stroke-linejoin: miter; stroke-miterlimit: 4; fill: rgb(255,101,132); fill-rule: nonzero; opacity: 1;" vector-effect="non-scaling-stroke"  transform=" translate(-633.25, -128.04)" d="M 644.38 114.308 L 622.11 114.308 C 621.422 114.311 620.763 114.586 620.278 115.073 C 619.792 115.561 619.52 116.221 619.52 116.909 L 619.52 139.169 C 619.519 139.509 619.585 139.847 619.715 140.162 C 619.845 140.478 620.035 140.764 620.276 141.006 C 620.516 141.247 620.802 141.439 621.117 141.57 C 621.432 141.701 621.769 141.768 622.11 141.769 L 644.38 141.769 C 645.069 141.768 645.731 141.494 646.218 141.007 C 646.706 140.519 646.98 139.858 646.98 139.169 L 646.98 116.909 C 646.978 116.22 646.703 115.559 646.216 115.072 C 645.729 114.585 645.069 114.311 644.38 114.308 L 644.38 114.308 Z" stroke-linecap="round" />
</g>
<g transform="matrix(1 0 0 1 885.86 301.03)"  >
<path style="stroke: none; stroke-width: 1; stroke-dasharray: none; stroke-linecap: butt; stroke-dashoffset: 0; stroke-linejoin: miter; stroke-miterlimit: 4; fill: rgb(230,230,230); fill-rule: nonzero; opacity: 1;" vector-effect="non-scaling-stroke"  transform=" translate(-633.25, -165.99)" d="M 644.38 152.259 L 622.11 152.259 C 621.769 152.259 621.432 152.326 621.117 152.457 C 620.802 152.588 620.516 152.78 620.276 153.021 C 620.035 153.263 619.845 153.55 619.715 153.865 C 619.585 154.18 619.519 154.518 619.52 154.859 L 619.52 177.119 C 619.519 177.459 619.585 177.797 619.715 178.112 C 619.845 178.428 620.035 178.714 620.276 178.956 C 620.516 179.197 620.802 179.389 621.117 179.52 C 621.432 179.651 621.769 179.718 622.11 179.719 L 644.38 179.719 C 645.069 179.718 645.731 179.444 646.218 178.957 C 646.706 178.469 646.98 177.808 646.98 177.119 L 646.98 154.859 C 646.98 154.169 646.706 153.508 646.218 153.02 C 645.731 152.533 645.069 152.259 644.38 152.259 L 644.38 152.259 Z" stroke-linecap="round" />
</g>
<g transform="matrix(1 0 0 1 932.62 149.23)"  >
<path style="stroke: none; stroke-width: 1; stroke-dasharray: none; stroke-linecap: butt; stroke-dashoffset: 0; stroke-linejoin: miter; stroke-miterlimit: 4; fill: rgb(230,230,230); fill-rule: nonzero; opacity: 1;" vector-effect="non-scaling-stroke"  transform=" translate(-680.01, -14.19)" d="M 691.14 0.458618 L 668.87 0.458618 C 668.182 0.461011 667.523 0.736 667.038 1.22333 C 666.552 1.71066 666.28 2.37058 666.28 3.05847 L 666.28 25.3285 C 666.28 26.0153 666.553 26.6741 667.039 27.1598 C 667.524 27.6455 668.183 27.9184 668.87 27.9185 L 691.14 27.9185 C 691.828 27.9188 692.488 27.6463 692.975 27.1608 C 693.463 26.6753 693.738 26.0164 693.74 25.3285 L 693.74 3.05847 C 693.738 2.36955 693.463 1.70942 692.976 1.22229 C 692.489 0.735161 691.829 0.46062 691.14 0.458618 L 691.14 0.458618 Z" stroke-linecap="round" />
</g>
<g transform="matrix(1 0 0 1 932.62 187.18)"  >
<path style="stroke: none; stroke-width: 1; stroke-dasharray: none; stroke-linecap: butt; stroke-dashoffset: 0; stroke-linejoin: miter; stroke-miterlimit: 4; fill: rgb(230,230,230); fill-rule: nonzero; opacity: 1;" vector-effect="non-scaling-stroke"  transform=" translate(-680.01, -52.14)" d="M 691.14 38.4086 L 668.87 38.4086 C 668.182 38.411 667.523 38.686 667.038 39.1733 C 666.552 39.6607 666.28 40.3207 666.28 41.0086 L 666.28 63.2786 C 666.28 63.9654 666.553 64.6241 667.039 65.1098 C 667.524 65.5955 668.183 65.8684 668.87 65.8686 L 691.14 65.8686 C 691.828 65.8688 692.488 65.5964 692.975 65.1109 C 693.463 64.6254 693.738 63.9665 693.74 63.2786 L 693.74 41.0086 C 693.738 40.3196 693.463 39.6595 692.976 39.1723 C 692.489 38.6851 691.829 38.4106 691.14 38.4086 L 691.14 38.4086 Z" stroke-linecap="round" />
</g>
<g transform="matrix(1 0 0 1 932.62 225.13)"  >
<path style="stroke: none; stroke-width: 1; stroke-dasharray: none; stroke-linecap: butt; stroke-dashoffset: 0; stroke-linejoin: miter; stroke-miterlimit: 4; fill: rgb(255,101,132); fill-rule: nonzero; opacity: 1;" vector-effect="non-scaling-stroke"  transform=" translate(-680.01, -90.09)" d="M 691.14 76.3585 L 668.87 76.3585 C 668.182 76.3609 667.523 76.636 667.038 77.1234 C 666.552 77.6107 666.28 78.2707 666.28 78.9586 L 666.28 101.219 C 666.279 101.559 666.345 101.897 666.475 102.212 C 666.605 102.528 666.795 102.814 667.036 103.056 C 667.276 103.297 667.562 103.489 667.877 103.62 C 668.192 103.751 668.529 103.818 668.87 103.818 L 691.14 103.818 C 691.829 103.818 692.491 103.544 692.978 103.057 C 693.466 102.569 693.74 101.908 693.74 101.219 L 693.74 78.9586 C 693.738 78.2697 693.463 77.6095 692.976 77.1223 C 692.489 76.6351 691.829 76.3606 691.14 76.3585 L 691.14 76.3585 Z" stroke-linecap="round" />
</g>
<g transform="matrix(1 0 0 1 932.62 263.08)"  >
<path style="stroke: none; stroke-width: 1; stroke-dasharray: none; stroke-linecap: butt; stroke-dashoffset: 0; stroke-linejoin: miter; stroke-miterlimit: 4; fill: rgb(230,230,230); fill-rule: nonzero; opacity: 1;" vector-effect="non-scaling-stroke"  transform=" translate(-680.01, -128.04)" d="M 691.14 114.308 L 668.87 114.308 C 668.182 114.311 667.523 114.586 667.038 115.073 C 666.552 115.561 666.28 116.221 666.28 116.909 L 666.28 139.169 C 666.279 139.509 666.345 139.847 666.475 140.162 C 666.605 140.478 666.795 140.764 667.036 141.006 C 667.276 141.247 667.562 141.439 667.877 141.57 C 668.192 141.701 668.529 141.768 668.87 141.769 L 691.14 141.769 C 691.829 141.768 692.491 141.494 692.978 141.007 C 693.466 140.519 693.74 139.858 693.74 139.169 L 693.74 116.909 C 693.738 116.22 693.463 115.559 692.976 115.072 C 692.489 114.585 691.829 114.311 691.14 114.308 L 691.14 114.308 Z" stroke-linecap="round" />
</g>
<g transform="matrix(1 0 0 1 932.62 301.03)"  >
<path style="stroke: none; stroke-width: 1; stroke-dasharray: none; stroke-linecap: butt; stroke-dashoffset: 0; stroke-linejoin: miter; stroke-miterlimit: 4; fill: rgb(230,230,230); fill-rule: nonzero; opacity: 1;" vector-effect="non-scaling-stroke"  transform=" translate(-680.01, -165.99)" d="M 691.14 152.259 L 668.87 152.259 C 668.529 152.259 668.192 152.326 667.877 152.457 C 667.562 152.588 667.276 152.78 667.036 153.021 C 666.795 153.263 666.605 153.55 666.475 153.865 C 666.345 154.18 666.279 154.518 666.28 154.859 L 666.28 177.119 C 666.279 177.459 666.345 177.797 666.475 178.112 C 666.605 178.428 666.795 178.714 667.036 178.956 C 667.276 179.197 667.562 179.389 667.877 179.52 C 668.192 179.651 668.529 179.718 668.87 179.719 L 691.14 179.719 C 691.829 179.718 692.491 179.444 692.978 178.957 C 693.466 178.469 693.74 177.808 693.74 177.119 L 693.74 154.859 C 693.74 154.169 693.466 153.508 692.978 153.02 C 692.491 152.533 691.829 152.259 691.14 152.259 L 691.14 152.259 Z" stroke-linecap="round" />
</g>
<g transform="matrix(1 0 0 1 546.24 283.75)"  >
<path style="stroke: none; stroke-width: 1; stroke-dasharray: none; stroke-linecap: butt; stroke-dashoffset: 0; stroke-linejoin: miter; stroke-miterlimit: 4; fill: rgb(255,101,132); fill-rule: nonzero; opacity: 1;" vector-effect="non-scaling-stroke"  transform=" translate(-293.62, -148.71)" d="M 293.617 201.93 C 322.88 201.93 346.603 178.102 346.603 148.708 C 346.603 119.314 322.88 95.485 293.617 95.485 C 264.354 95.485 240.632 119.314 240.632 148.708 C 240.632 178.102 264.354 201.93 293.617 201.93 Z" stroke-linecap="round" />
</g>
<g transform="matrix(1 0 0 1 622.43 267)"  >
<path style="stroke: none; stroke-width: 1; stroke-dasharray: none; stroke-linecap: butt; stroke-dashoffset: 0; stroke-linejoin: miter; stroke-miterlimit: 4; fill: rgb(230,230,230); fill-rule: nonzero; opacity: 1;" vector-effect="non-scaling-stroke"  transform=" translate(-369.82, -131.96)" d="M 455.847 145.93 C 451.073 140.864 446.032 136.058 440.747 131.533 C 430.425 122.74 418.997 115.264 406.259 110.554 C 401.464 108.775 396.509 107.465 391.462 106.641 C 390.856 106.543 390.259 106.444 389.653 106.364 C 389.608 106.359 389.564 106.359 389.519 106.364 C 389.426 106.337 389.331 106.319 389.234 106.31 C 387.995 106.149 386.756 106.023 385.508 105.934 C 378.787 105.485 372.038 106.095 365.505 107.743 C 361.715 108.703 358.016 109.998 354.452 111.611 C 350.882 113.366 347.42 115.337 344.085 117.511 C 342.295 118.604 340.45 119.605 338.559 120.511 C 333.037 123.139 327.192 125.017 321.177 126.098 C 317.115 126.83 313.002 127.237 308.876 127.315 C 305.293 127.387 301.914 127.512 298.518 128.811 C 294.894 130.179 291.638 132.379 289.011 135.237 C 286.385 138.094 284.46 141.53 283.391 145.268 C 283.307 145.6 283.331 145.95 283.459 146.267 C 283.587 146.585 283.814 146.853 284.104 147.031 C 285.023 147.694 285.914 148.446 286.886 149.037 C 287.743 149.43 288.658 149.681 289.595 149.78 C 291.129 150.103 292.665 150.416 294.204 150.72 C 299.864 151.849 305.548 152.848 311.256 153.72 C 322.737 155.466 334.283 156.696 345.895 157.409 C 345.966 157.419 346.037 157.425 346.109 157.427 C 359.227 158.222 372.377 158.351 385.508 157.812 C 387.496 157.731 389.475 157.633 391.462 157.516 C 399.743 157.051 408.003 156.316 416.243 155.314 C 423.864 154.383 431.456 153.227 439.018 151.849 C 444.419 150.864 449.8 149.765 455.161 148.554 C 455.421 148.476 455.657 148.333 455.846 148.137 C 456.035 147.941 456.171 147.7 456.24 147.436 C 456.309 147.172 456.309 146.895 456.24 146.631 C 456.171 146.368 456.036 146.126 455.847 145.93 L 455.847 145.93 Z" stroke-linecap="round" />
</g>
<g transform="matrix(1 0 0 1 512.3 337.98)"  >
<path style="stroke: none; stroke-width: 1; stroke-dasharray: none; stroke-linecap: butt; stroke-dashoffset: 0; stroke-linejoin: miter; stroke-miterlimit: 4; fill: rgb(230,230,230); fill-rule: nonzero; opacity: 1;" vector-effect="non-scaling-stroke"  transform=" translate(-259.69, -202.93)" d="M 345.717 216.897 C 338.046 208.655 329.594 201.182 320.482 194.585 C 317.46 192.454 314.349 190.448 311.149 188.612 C 307.226 186.338 303.151 184.336 298.955 182.622 C 298.019 182.237 297.074 181.87 296.129 181.521 C 290.761 179.524 285.193 178.119 279.523 177.331 C 279.478 177.322 279.434 177.331 279.389 177.322 C 279.3 177.304 279.202 177.286 279.113 177.268 C 276.364 176.91 273.595 176.74 270.823 176.758 C 268.835 176.758 266.838 176.865 264.86 177.062 C 261.662 177.379 258.493 177.929 255.375 178.71 C 253.833 179.095 252.3 179.542 250.794 180.053 C 248.596 180.779 246.439 181.622 244.331 182.578 C 244.295 182.596 244.269 182.605 244.233 182.622 C 240.694 184.362 237.265 186.317 233.964 188.478 C 233.893 188.523 233.813 188.568 233.742 188.612 C 229.993 190.865 226.027 192.731 221.904 194.182 C 218.365 195.425 214.735 196.389 211.047 197.065 C 206.986 197.799 202.872 198.203 198.746 198.274 C 195.162 198.345 191.784 198.471 188.397 199.778 C 184.771 201.145 181.514 203.346 178.886 206.203 C 176.258 209.061 174.332 212.496 173.261 216.235 C 173.179 216.567 173.203 216.916 173.331 217.233 C 173.46 217.551 173.685 217.818 173.974 217.999 C 174.892 218.661 175.793 219.404 176.755 219.995 C 177.612 220.391 178.527 220.642 179.465 220.738 C 180.998 221.061 182.532 221.383 184.074 221.688 C 189.734 222.816 195.421 223.813 201.135 224.678 C 208.97 225.869 216.838 226.821 224.739 227.534 C 228.482 227.884 232.229 228.17 235.979 228.394 C 245.597 228.976 255.224 229.203 264.86 229.074 C 266.847 229.047 268.835 229.003 270.823 228.94 C 282.625 228.591 294.391 227.701 306.122 226.272 C 319.197 224.683 332.183 222.427 345.031 219.512 C 345.29 219.435 345.526 219.293 345.715 219.098 C 345.904 218.903 346.039 218.662 346.108 218.399 C 346.177 218.136 346.178 217.86 346.109 217.597 C 346.04 217.333 345.905 217.093 345.717 216.897 L 345.717 216.897 Z" stroke-linecap="round" />
</g>
<g transform="matrix(1 0 0 1 445.12 385.87)"  >
<path style="stroke: none; stroke-width: 1; stroke-dasharray: none; stroke-linecap: butt; stroke-dashoffset: 0; stroke-linejoin: miter; stroke-miterlimit: 4; fill: rgb(204,204,204); fill-rule: nonzero; opacity: 1;" vector-effect="non-scaling-stroke"  transform=" translate(-192.5, -250.83)" d="M 192.5 71.9235 L 220 425.585 L 165 430.128 L 165 76.4231 C 171.554 71.6589 180.962 70.9135 192.5 71.9235 Z" stroke-linecap="round" />
</g>
<g transform="matrix(1 0 0 1 720.12 364)"  >
<path style="stroke: none; stroke-width: 1; stroke-dasharray: none; stroke-linecap: butt; stroke-dashoffset: 0; stroke-linejoin: miter; stroke-miterlimit: 4; fill: rgb(204,204,204); fill-rule: nonzero; opacity: 1;" vector-effect="non-scaling-stroke"  transform=" translate(-467.5, -228.96)" d="M 467.5 71.8039 L 440 382.468 L 495 386.459 L 495 75.7564 C 488.446 71.5715 479.038 70.9167 467.5 71.8039 Z" stroke-linecap="round" />
</g>
<g transform="matrix(1 0 0 1 582.62 306)"  >
<path style="stroke: none; stroke-width: 1; stroke-dasharray: none; stroke-linecap: butt; stroke-dashoffset: 0; stroke-linejoin: miter; stroke-miterlimit: 4; fill: rgb(204,204,204); fill-rule: nonzero; opacity: 1;" vector-effect="non-scaling-stroke"  transform=" translate(-330, -170.96)" d="M 493.24 73.9893 C 490.367 71.9006 484.258 70.4587 477.194 70.4587 L 182.809 70.4587 C 172.986 70.4587 165.002 73.2529 165.002 76.6907 L 165.002 265.227 C 164.917 266.971 167.116 268.657 171.138 269.93 C 173.243 270.585 175.907 271.059 178.848 271.301 C 180.138 271.407 181.47 271.46 182.809 271.459 L 477.194 271.459 C 478.532 271.46 479.865 271.407 481.155 271.301 C 489.076 270.67 495 268.188 495 265.227 L 495 76.6907 C 495.008 75.765 494.411 74.8476 493.24 73.9893 L 493.24 73.9893 Z M 489.094 265.227 C 489.094 267.523 483.754 269.392 477.194 269.392 L 182.809 269.392 C 177.371 269.392 172.765 268.107 171.359 266.359 C 171.059 265.988 170.907 265.608 170.908 265.227 L 170.908 76.6907 C 170.908 74.3947 176.248 72.5288 182.809 72.5288 L 477.194 72.5288 C 478.401 72.5285 479.599 72.5925 480.73 72.7176 C 485.566 73.2436 489.094 74.8248 489.094 76.6907 L 489.094 265.227 Z" stroke-linecap="round" />
</g>
<g transform="matrix(1 0 0 1 580.98 404.31)"  >
<path style="stroke: none; stroke-width: 1; stroke-dasharray: none; stroke-linecap: butt; stroke-dashoffset: 0; stroke-linejoin: miter; stroke-miterlimit: 4; fill: rgb(204,204,204); fill-rule: nonzero; opacity: 1;" vector-effect="non-scaling-stroke"  transform=" translate(-328.36, -269.27)" d="M 491.733 266.281 L 164.981 266.281 L 164.981 272.266 L 491.733 272.266 L 491.733 266.281 Z" stroke-linecap="round" />
</g>
<g transform="matrix(1 0 0 1 580.98 280.75)"  >
<path style="stroke: none; stroke-width: 1; stroke-dasharray: none; stroke-linecap: butt; stroke-dashoffset: 0; stroke-linejoin: miter; stroke-miterlimit: 4; fill: rgb(204,204,204); fill-rule: nonzero; opacity: 1;" vector-effect="non-scaling-stroke"  transform=" translate(-328.36, -145.71)" d="M 491.733 142.719 L 164.981 142.719 L 164.981 148.705 L 491.733 148.705 L 491.733 142.719 Z" stroke-linecap="round" />
</g>
<g transform="matrix(1 0 0 1 580.98 504.07)"  >
<path style="stroke: none; stroke-width: 1; stroke-dasharray: none; stroke-linecap: butt; stroke-dashoffset: 0; stroke-linejoin: miter; stroke-miterlimit: 4; fill: rgb(204,204,204); fill-rule: nonzero; opacity: 1;" vector-effect="non-scaling-stroke"  transform=" translate(-328.36, -369.03)" d="M 491.733 366.042 L 164.981 366.042 L 164.981 372.027 L 491.733 372.027 L 491.733 366.042 Z" stroke-linecap="round" />
</g>
<g transform="matrix(1 0 0 1 520.64 391.03)"  >
<path style="stroke: none; stroke-width: 1; stroke-dasharray: none; stroke-linecap: butt; stroke-dashoffset: 0; stroke-linejoin: miter; stroke-miterlimit: 4; fill: rgb(204,204,204); fill-rule: nonzero; opacity: 1;" vector-effect="non-scaling-stroke"  transform=" translate(-268.04, -256)" d="M 271.015 73.2122 L 265.056 73.2122 L 265.056 438.781 L 271.015 438.781 L 271.015 73.2122 Z" stroke-linecap="round" />
</g>
<g transform="matrix(1 0 0 1 641.29 391.03)"  >
<path style="stroke: none; stroke-width: 1; stroke-dasharray: none; stroke-linecap: butt; stroke-dashoffset: 0; stroke-linejoin: miter; stroke-miterlimit: 4; fill: rgb(204,204,204); fill-rule: nonzero; opacity: 1;" vector-effect="non-scaling-stroke"  transform=" translate(-388.68, -256)" d="M 391.658 73.2122 L 385.699 73.2122 L 385.699 438.781 L 391.658 438.781 L 391.658 73.2122 Z" stroke-linecap="round" />
</g>
<g transform="matrix(1 0 0 1 836.86 692.39)"  >
<path style="stroke: none; stroke-width: 1; stroke-dasharray: none; stroke-linecap: butt; stroke-dashoffset: 0; stroke-linejoin: miter; stroke-miterlimit: 4; fill: rgb(230,230,230); fill-rule: nonzero; opacity: 1;" vector-effect="non-scaling-stroke"  transform=" translate(-584.26, -557.34)" d="M 505.326 437.178 L 505.326 623.001 L 536.27 673.656 L 538.625 677.509 L 660.722 677.509 L 663.189 437.178 L 505.326 437.178 Z" stroke-linecap="round" />
</g>
<g transform="matrix(1 0 0 1 774.35 690.46)"  >
<path style="stroke: none; stroke-width: 1; stroke-dasharray: none; stroke-linecap: butt; stroke-dashoffset: 0; stroke-linejoin: miter; stroke-miterlimit: 4; fill: rgb(0,0,0); fill-rule: nonzero; opacity: 0.1;" vector-effect="non-scaling-stroke"  transform=" translate(-521.75, -555.42)" d="M 505.326 437.178 L 505.326 623.001 L 536.27 673.656 L 538.169 437.178 L 505.326 437.178 Z" stroke-linecap="round" />
</g>
<g transform="matrix(1 0 0 1 384.25 687.43)"  >
<path style="stroke: none; stroke-width: 1; stroke-dasharray: none; stroke-linecap: butt; stroke-dashoffset: 0; stroke-linejoin: miter; stroke-miterlimit: 4; fill: rgb(230,230,230); fill-rule: nonzero; opacity: 1;" vector-effect="non-scaling-stroke"  transform=" translate(-131.63, -552.39)" d="M 210.566 432.221 L 210.566 618.045 L 179.622 668.701 L 177.267 672.553 L 55.17 672.553 L 52.703 432.221 L 210.566 432.221 Z" stroke-linecap="round" />
</g>
<g transform="matrix(1 0 0 1 446.76 685.5)"  >
<path style="stroke: none; stroke-width: 1; stroke-dasharray: none; stroke-linecap: butt; stroke-dashoffset: 0; stroke-linejoin: miter; stroke-miterlimit: 4; fill: rgb(0,0,0); fill-rule: nonzero; opacity: 0.1;" vector-effect="non-scaling-stroke"  transform=" translate(-194.14, -550.46)" d="M 210.566 432.221 L 210.566 618.045 L 179.622 668.701 L 177.723 432.221 L 210.566 432.221 Z" stroke-linecap="round" />
</g>
<g transform="matrix(1 0 0 1 621.05 550.54)"  >
<path style="stroke: none; stroke-width: 1; stroke-dasharray: none; stroke-linecap: butt; stroke-dashoffset: 0; stroke-linejoin: miter; stroke-miterlimit: 4; fill: rgb(230,230,230); fill-rule: nonzero; opacity: 1;" vector-effect="non-scaling-stroke"  transform=" translate(-368.43, -415.5)" d="M 700.188 428.506 L 700.188 439.655 L 36.67 439.655 L 36.67 423.55 L 98.335 391.34 L 645.923 391.34 L 700.188 428.506 Z" stroke-linecap="round" />
</g>
<g transform="matrix(1 0 0 1 621.05 566.64)"  >
<path style="stroke: none; stroke-width: 1; stroke-dasharray: none; stroke-linecap: butt; stroke-dashoffset: 0; stroke-linejoin: miter; stroke-miterlimit: 4; fill: rgb(0,0,0); fill-rule: nonzero; opacity: 0.1;" vector-effect="non-scaling-stroke"  transform=" translate(-368.43, -431.6)" d="M 700.188 428.506 L 700.188 439.655 L 36.67 439.655 L 36.67 423.55 L 700.188 428.506 Z" stroke-linecap="round" />
</g>
<g transform="matrix(1 0 0 1 370.07 614.96)"  >
<path style="stroke: none; stroke-width: 1; stroke-dasharray: none; stroke-linecap: butt; stroke-dashoffset: 0; stroke-linejoin: miter; stroke-miterlimit: 4; fill: rgb(63,61,86); fill-rule: nonzero; opacity: 1;" vector-effect="non-scaling-stroke"  transform=" translate(-117.45, -479.92)" d="M 131.635 484.252 L 102.035 484.252 L 89.702 475.581 L 145.201 475.581 L 131.635 484.252 Z" stroke-linecap="round" />
</g>
<g transform="matrix(1 0 0 1 370.07 650.89)"  >
<path style="stroke: none; stroke-width: 1; stroke-dasharray: none; stroke-linecap: butt; stroke-dashoffset: 0; stroke-linejoin: miter; stroke-miterlimit: 4; fill: rgb(63,61,86); fill-rule: nonzero; opacity: 1;" vector-effect="non-scaling-stroke"  transform=" translate(-117.45, -515.84)" d="M 131.635 520.178 L 102.035 520.178 L 89.702 511.507 L 145.201 511.507 L 131.635 520.178 Z" stroke-linecap="round" />
</g>
<g transform="matrix(1 0 0 1 370.07 701.68)"  >
<path style="stroke: none; stroke-width: 1; stroke-dasharray: none; stroke-linecap: butt; stroke-dashoffset: 0; stroke-linejoin: miter; stroke-miterlimit: 4; fill: rgb(63,61,86); fill-rule: nonzero; opacity: 1;" vector-effect="non-scaling-stroke"  transform=" translate(-117.45, -566.63)" d="M 131.635 570.971 L 102.035 570.971 L 89.702 562.298 L 145.201 562.298 L 131.635 570.971 Z" stroke-linecap="round" />
</g>
<g transform="matrix(1 0 0 1 370.07 752.47)"  >
<path style="stroke: none; stroke-width: 1; stroke-dasharray: none; stroke-linecap: butt; stroke-dashoffset: 0; stroke-linejoin: miter; stroke-miterlimit: 4; fill: rgb(63,61,86); fill-rule: nonzero; opacity: 1;" vector-effect="non-scaling-stroke"  transform=" translate(-117.45, -617.43)" d="M 131.635 621.762 L 102.035 621.762 L 89.702 613.09 L 145.201 613.09 L 131.635 621.762 Z" stroke-linecap="round" />
</g>
<g transform="matrix(1 0 0 1 851.06 619.92)"  >
<path style="stroke: none; stroke-width: 1; stroke-dasharray: none; stroke-linecap: butt; stroke-dashoffset: 0; stroke-linejoin: miter; stroke-miterlimit: 4; fill: rgb(63,61,86); fill-rule: nonzero; opacity: 1;" vector-effect="non-scaling-stroke"  transform=" translate(-598.44, -484.87)" d="M 584.257 489.207 L 613.857 489.207 L 626.19 480.536 L 570.691 480.536 L 584.257 489.207 Z" stroke-linecap="round" />
</g>
<g transform="matrix(1 0 0 1 851.06 655.84)"  >
<path style="stroke: none; stroke-width: 1; stroke-dasharray: none; stroke-linecap: butt; stroke-dashoffset: 0; stroke-linejoin: miter; stroke-miterlimit: 4; fill: rgb(63,61,86); fill-rule: nonzero; opacity: 1;" vector-effect="non-scaling-stroke"  transform=" translate(-598.44, -520.8)" d="M 584.257 525.133 L 613.857 525.133 L 626.19 516.462 L 570.691 516.462 L 584.257 525.133 Z" stroke-linecap="round" />
</g>
<g transform="matrix(1 0 0 1 851.06 706.64)"  >
<path style="stroke: none; stroke-width: 1; stroke-dasharray: none; stroke-linecap: butt; stroke-dashoffset: 0; stroke-linejoin: miter; stroke-miterlimit: 4; fill: rgb(63,61,86); fill-rule: nonzero; opacity: 1;" vector-effect="non-scaling-stroke"  transform=" translate(-598.44, -571.59)" d="M 584.257 575.926 L 613.857 575.926 L 626.19 567.254 L 570.691 567.254 L 584.257 575.926 Z" stroke-linecap="round" />
</g>
<g transform="matrix(1 0 0 1 851.06 757.43)"  >
<path style="stroke: none; stroke-width: 1; stroke-dasharray: none; stroke-linecap: butt; stroke-dashoffset: 0; stroke-linejoin: miter; stroke-miterlimit: 4; fill: rgb(63,61,86); fill-rule: nonzero; opacity: 1;" vector-effect="non-scaling-stroke"  transform=" translate(-598.44, -622.38)" d="M 584.257 626.717 L 613.857 626.717 L 626.19 618.045 L 570.691 618.045 L 584.257 626.717 Z" stroke-linecap="round" />
</g>
<g transform="matrix(1 0 0 1 732.42 486.16)"  >
<path style="stroke: none; stroke-width: 1; stroke-dasharray: none; stroke-linecap: butt; stroke-dashoffset: 0; stroke-linejoin: miter; stroke-miterlimit: 4; fill: rgb(242,242,242); fill-rule: nonzero; opacity: 1;" vector-effect="non-scaling-stroke"  transform=" translate(-479.82, -351.12)" d="M 479.821 357.161 C 483.142 357.161 485.834 354.457 485.834 351.122 C 485.834 347.786 483.142 345.082 479.821 345.082 C 476.5 345.082 473.809 347.786 473.809 351.122 C 473.809 354.457 476.5 357.161 479.821 357.161 Z" stroke-linecap="round" />
</g>
<g transform="matrix(1 0 0 1 351.85 223.48)"  >
<path style="stroke: none; stroke-width: 1; stroke-dasharray: none; stroke-linecap: butt; stroke-dashoffset: 0; stroke-linejoin: miter; stroke-miterlimit: 4; fill: rgb(62,45,32); fill-rule: nonzero; opacity: 1;" vector-effect="non-scaling-stroke"  transform=" translate(-99.24, -88.44)" d="M 83.6614 55.4592 C 81.9336 55.3167 80.2034 55.7049 78.7002 56.5724 C 77.2242 57.5878 71.2379 63.3034 70.2883 64.9587 C 66.6576 71.3628 66.7984 73.0029 60.91 77.3994 C 56.6211 80.5554 51.1683 84.4906 51.9021 90.3096 C 52.2892 92.2312 52.996 94.0736 53.9927 95.7593 C 57.9493 103.782 68.7463 109.982 67.6843 119.137 C 71.6153 112.526 66.3573 109.258 70.2883 102.647 C 72.1603 99.4993 75.4124 95.9457 78.2388 97.9227 C 79.1852 98.5846 79.8066 99.7719 80.792 100.353 C 83.1432 101.739 85.6446 99.0891 87.7258 97.2124 C 94.9027 90.7409 105.109 92.4363 114.04 94.4526 C 118.256 95.4045 122.887 96.6534 125.379 100.701 C 128.656 106.023 122.266 111.771 120.651 117.788 C 120.52 118.301 120.513 118.838 120.633 119.353 C 120.753 119.869 120.996 120.348 121.34 120.749 C 121.684 121.15 122.12 121.461 122.61 121.656 C 123.1 121.851 123.63 121.924 124.154 121.868 C 126.834 121.603 130.008 121.385 130.167 120.204 C 133.539 120.324 137.67 119.941 139.114 116.414 C 139.556 115.019 139.789 113.566 139.807 112.102 C 140.337 106.178 142.84 100.774 144.498 95.1365 C 146.156 89.4986 146.877 82.8914 144.079 77.8928 C 151.5 94.4526 140.547 68.2633 139.114 66.9586 C 123.235 51.5231 103.657 55.4363 83.6614 55.4592 Z" stroke-linecap="round" />
</g>
<g transform="matrix(1 0 0 1 347.25 302.88)"  >
<path style="stroke: none; stroke-width: 1; stroke-dasharray: none; stroke-linecap: butt; stroke-dashoffset: 0; stroke-linejoin: miter; stroke-miterlimit: 4; fill: rgb(232,190,172); fill-rule: nonzero; opacity: 1;" vector-effect="non-scaling-stroke"  transform=" translate(-94.63, -167.84)" d="M 71.1377 130.699 C 71.1377 130.699 74.5911 159.607 61.9286 161.919 C 49.2661 164.232 73.4399 203.546 73.4399 203.546 L 130.997 210.483 L 115.5 163.959 C 115.5 163.959 107.974 160.763 113.73 137.637 C 119.485 114.511 71.1377 130.699 71.1377 130.699 Z" stroke-linecap="round" />
</g>
<g transform="matrix(1 0 0 1 303.03 794.17)"  >
<path style="stroke: none; stroke-width: 1; stroke-dasharray: none; stroke-linecap: butt; stroke-dashoffset: 0; stroke-linejoin: miter; stroke-miterlimit: 4; fill: rgb(232,190,172); fill-rule: nonzero; opacity: 1;" vector-effect="non-scaling-stroke"  transform=" translate(-50.42, -659.12)" d="M 36.028 627.325 L 40.633 690.921 L 64.806 690.921 L 57.9 627.325 L 36.028 627.325 Z" stroke-linecap="round" />
</g>
<g transform="matrix(1 0 0 1 463.88 667.55)"  >
<path style="stroke: none; stroke-width: 1; stroke-dasharray: none; stroke-linecap: butt; stroke-dashoffset: 0; stroke-linejoin: miter; stroke-miterlimit: 4; fill: rgb(232,190,172); fill-rule: nonzero; opacity: 1;" vector-effect="non-scaling-stroke"  transform=" translate(-211.27, -532.51)" d="M 196.303 507.071 L 199.756 560.26 L 226.233 548.697 L 215.872 504.759 L 196.303 507.071 Z" stroke-linecap="round" />
</g>
<g transform="matrix(1 0 0 1 373.62 619.5)"  >
<path style="stroke: none; stroke-width: 1; stroke-dasharray: none; stroke-linecap: butt; stroke-dashoffset: 0; stroke-linejoin: miter; stroke-miterlimit: 4; fill: rgb(47,46,65); fill-rule: nonzero; opacity: 1;" vector-effect="non-scaling-stroke"  transform=" translate(-121, -484.46)" d="M 14 383.779 C 14 383.779 15.0974 450.677 21.682 472.592 C 28.2667 494.507 27.1692 495.66 26.0718 499.12 C 24.9744 502.58 23.8769 500.274 23.8769 506.041 C 23.8769 511.808 21.6821 602.927 23.8769 611.001 C 26.0718 619.075 17.2923 632.916 23.8769 634.069 C 30.4615 635.222 61.1897 634.069 62.2872 627.149 C 63.3846 620.228 53.5077 617.921 57.8975 613.308 C 62.2872 608.694 68.8718 514.114 68.8718 514.114 L 84.2359 448.37 L 112.769 413.768 L 173.128 413.768 L 191.785 489.893 C 191.785 489.893 184.102 511.808 189.59 511.808 C 195.077 511.808 228 518.728 228 493.353 C 228 467.978 217.026 393.007 214.831 390.7 C 212.636 388.393 215.928 380.319 212.636 376.859 C 209.344 373.399 170.933 349.177 156.667 344.563 C 142.4 339.95 122.386 334.459 122.386 334.459 L 14 383.779 Z" stroke-linecap="round" />
</g>
<g transform="matrix(1 0 0 1 472.06 685.75)"  >
<path style="stroke: none; stroke-width: 1; stroke-dasharray: none; stroke-linecap: butt; stroke-dashoffset: 0; stroke-linejoin: miter; stroke-miterlimit: 4; fill: rgb(47,46,65); fill-rule: nonzero; opacity: 1;" vector-effect="non-scaling-stroke"  transform=" translate(-219.45, -550.71)" d="M 222.233 531.447 C 222.233 531.447 204.966 525.666 196.908 543.01 C 188.85 560.354 192.303 564.979 192.303 564.979 C 192.303 564.979 218.779 574.23 223.384 569.605 C 225.387 567.592 231.748 566.893 238.296 566.746 C 248.269 566.521 250.923 552.348 241.504 549.048 C 241.223 548.949 240.939 548.864 240.651 548.791 C 231.442 546.479 222.233 531.447 222.233 531.447 Z" stroke-linecap="round" />
</g>
<g transform="matrix(1 0 0 1 349.65 250.13)"  >
<path style="stroke: none; stroke-width: 1; stroke-dasharray: none; stroke-linecap: butt; stroke-dashoffset: 0; stroke-linejoin: miter; stroke-miterlimit: 4; fill: rgb(232,190,172); fill-rule: nonzero; opacity: 1;" vector-effect="non-scaling-stroke"  transform=" translate(-97.04, -115.09)" d="M 97.0383 149.778 C 116.111 149.778 131.572 134.247 131.572 115.089 C 131.572 95.9315 116.111 80.4008 97.0383 80.4008 C 77.9656 80.4008 62.5042 95.9315 62.5042 115.089 C 62.5042 134.247 77.9656 149.778 97.0383 149.778 Z" stroke-linecap="round" />
</g>
<g transform="matrix(1 0 0 1 333.96 400.36)"  >
<path style="stroke: none; stroke-width: 1; stroke-dasharray: none; stroke-linecap: butt; stroke-dashoffset: 0; stroke-linejoin: miter; stroke-miterlimit: 4; fill: rgb(242,242,242); fill-rule: nonzero; opacity: 1;" vector-effect="non-scaling-stroke"  transform=" translate(-81.34, -265.31)" d="M 70.5 160.459 C 70.5 160.459 98.9404 175.335 110.5 161.459 C 122.06 147.582 136.22 230.547 136.22 230.547 L 142 286.052 L 133.562 330.286 C 133.562 330.286 39.4495 367.857 25 370.459 C 10.5505 373.061 37 356.302 37 356.302 C 37 356.302 43.7432 260.034 43.7432 258.299 C 43.7432 256.565 70.5 160.459 70.5 160.459 Z" stroke-linecap="round" />
</g>
<g transform="matrix(1 0 0 1 306.8 418.28)"  >
<path style="stroke: none; stroke-width: 1; stroke-dasharray: none; stroke-linecap: butt; stroke-dashoffset: 0; stroke-linejoin: miter; stroke-miterlimit: 4; fill: rgb(84,82,130); fill-rule: nonzero; opacity: 1;" vector-effect="non-scaling-stroke"  transform=" translate(-54.18, -283.23)" d="M 70 157.459 C 70 157.459 61.1722 147.531 58.1215 154.472 C 55.0709 161.412 26.5985 178.764 23.5479 178.764 C 20.4973 178.764 39.0675 271.391 35 282.959 C 40 315.459 2.19363 382.359 13.3792 389.3 C 24.5648 396.241 16.4298 382.359 27.6154 399.711 C 38.801 417.063 93.712 417.063 96.7626 410.122 C 99.8132 403.182 78.459 372.044 83.5433 323.459 C 88.6277 274.873 90.6614 186.862 83.5433 177.607 C 76.4252 168.353 70 157.459 70 157.459 Z" stroke-linecap="round" />
</g>
<g transform="matrix(1 0 0 1 390.62 392)"  >
<path style="stroke: none; stroke-width: 1; stroke-dasharray: none; stroke-linecap: butt; stroke-dashoffset: 0; stroke-linejoin: miter; stroke-miterlimit: 4; fill: rgb(84,82,130); fill-rule: nonzero; opacity: 1;" vector-effect="non-scaling-stroke"  transform=" translate(-138, -256.96)" d="M 106 178.969 L 112.064 157.459 C 112.064 157.459 142.462 171.85 144.316 182.47 C 146.169 193.091 150.804 267.112 144.316 273.012 C 137.828 278.913 132.185 294.522 137.089 305.225 C 143.577 319.386 150.992 334.727 156.553 335.907 C 162.114 337.087 172.309 345.348 169.529 353.608 C 166.748 361.869 119.474 349.548 119.474 349.548 C 119.474 349.548 111.137 325.286 112.064 292.244 C 112.991 259.202 106 178.969 106 178.969 Z" stroke-linecap="round" />
</g>
<g transform="matrix(1 0 0 1 373.98 474.82)"  >
<path style="stroke: none; stroke-width: 1; stroke-dasharray: none; stroke-linecap: butt; stroke-dashoffset: 0; stroke-linejoin: miter; stroke-miterlimit: 4; fill: rgb(232,190,172); fill-rule: nonzero; opacity: 1;" vector-effect="non-scaling-stroke"  transform=" translate(-121.36, -339.78)" d="M 137 290.459 L 109.373 342.492 C 109.373 342.492 69.083 384.118 92.1058 388.743 C 115.129 393.368 127.791 350.586 127.791 350.586 L 157.721 307.803 L 137 290.459 Z" stroke-linecap="round" />
</g>
<g transform="matrix(1 0 0 1 350.36 223.26)"  >
<path style="stroke: none; stroke-width: 1; stroke-dasharray: none; stroke-linecap: butt; stroke-dashoffset: 0; stroke-linejoin: miter; stroke-miterlimit: 4; fill: rgb(62,45,32); fill-rule: nonzero; opacity: 1;" vector-effect="non-scaling-stroke"  transform=" translate(-97.75, -88.21)" d="M 85.3438 64.5353 C 83.9518 64.4317 82.5575 64.7033 81.3051 65.3221 C 80.1726 66.1529 79.2393 67.2273 78.5732 68.4668 C 75.5029 73.1061 71.5005 77.049 66.8231 80.0424 C 63.3318 82.2731 58.893 85.0545 59.4904 89.1673 C 59.8146 90.5462 60.3917 91.8525 61.1922 93.0191 C 64.4241 98.7469 65.7108 105.376 64.8574 111.904 L 74.4575 97.8875 C 75.9814 95.6625 78.6287 93.1509 80.9295 94.5482 C 81.6999 95.0161 82.2058 95.8552 83.0079 96.2657 C 84.9219 97.2453 86.9581 95.3726 88.6524 94.0462 C 94.4946 89.4722 96.7299 96.4624 104 97.8875 C 107.432 98.5603 114.971 95.0266 117 97.8875 C 124.5 97.4586 112.5 85.3473 118 100.459 C 117.5 101.459 135.006 105.743 133 108.959 C 135.842 104.403 132.893 111.126 133 110.459 C 135.745 110.544 131.824 111.451 133 108.959 C 135.515 108.959 131.033 105.611 131.048 104.57 C 131.48 100.383 133.518 96.5637 134.867 92.5789 C 136.217 88.5941 136.804 83.9241 134.526 80.3912 C 133.693 79.1941 132.687 78.1281 131.542 77.2279 C 118.616 66.3182 101.621 64.5191 85.3438 64.5353 Z" stroke-linecap="round" />
</g>
<g transform="matrix(1 0 0 1 396.62 386)"  >
<path style="stroke: none; stroke-width: 1; stroke-dasharray: none; stroke-linecap: butt; stroke-dashoffset: 0; stroke-linejoin: miter; stroke-miterlimit: 4; fill: rgb(84,82,130); fill-rule: nonzero; opacity: 1;" vector-effect="non-scaling-stroke"  transform=" translate(-144, -250.96)" d="M 134.288 177.459 L 143.941 180.328 C 143.941 180.328 166.404 244.75 161.224 288.838 C 156.044 332.925 152.936 323.644 152.936 323.644 C 152.936 323.644 144.648 302.76 126 307.401 L 134.288 177.459 Z" stroke-linecap="round" />
</g>
<g transform="matrix(1 0 0 1 297.49 819.68)"  >
<path style="stroke: none; stroke-width: 1; stroke-dasharray: none; stroke-linecap: butt; stroke-dashoffset: 0; stroke-linejoin: miter; stroke-miterlimit: 4; fill: rgb(47,46,65); fill-rule: nonzero; opacity: 1;" vector-effect="non-scaling-stroke"  transform=" translate(-44.87, -684.64)" d="M 37.6228 663.516 C 34.8469 667.305 35.4035 672.722 32.9446 676.726 C 30.8131 680.196 26.7962 682.016 24.1302 685.092 C 23.2795 686.113 22.5211 687.209 21.864 688.366 C 19.3909 692.527 17.3807 697.86 19.8164 702.043 C 21.7758 705.409 25.8943 706.724 29.6714 707.62 C 34.4455 708.753 39.4058 709.66 44.2349 708.794 C 49.0641 707.928 53.7838 704.958 55.5056 700.344 C 55.844 699.184 56.2463 698.044 56.7107 696.928 C 59.3282 691.752 67.5382 691.696 70.217 686.552 C 72.0916 682.952 70.3684 678.6 68.6458 674.924 L 63.3847 663.697 C 61.6388 659.972 54.5611 662.114 50.8713 661.221 C 46.0591 660.057 41.0847 658.774 37.6228 663.516 Z" stroke-linecap="round" />
</g>
<g transform="matrix(1 0 0 1 300.03 503.79)"  >
<path style="stroke: none; stroke-width: 1; stroke-dasharray: none; stroke-linecap: butt; stroke-dashoffset: 0; stroke-linejoin: miter; stroke-miterlimit: 4; fill: rgb(232,190,172); fill-rule: nonzero; opacity: 1;" vector-effect="non-scaling-stroke"  transform=" translate(-47.41, -368.75)" d="M 3 322.553 L 51.3477 397.711 C 51.3477 397.711 81.2773 435.869 90.4863 418.525 C 99.6954 401.18 58.2545 372.273 58.2545 372.273 L 27.1738 314.459 L 3 322.553 Z" stroke-linecap="round" />
</g>
<g transform="matrix(1 0 0 1 269.62 391)"  >
<path style="stroke: none; stroke-width: 1; stroke-dasharray: none; stroke-linecap: butt; stroke-dashoffset: 0; stroke-linejoin: miter; stroke-miterlimit: 4; fill: rgb(84,82,130); fill-rule: nonzero; opacity: 1;" vector-effect="non-scaling-stroke"  transform=" translate(-17, -255.96)" d="M 29.5722 181.776 L 21.6476 179.459 C 21.6476 179.459 5.7984 185.252 1.83611 209.585 C -2.12618 233.917 0.845531 331.247 5.7984 332.405 C 10.7513 333.564 30.2606 315.458 33.3834 319.297 C 36.5062 323.136 26.6004 303.438 29.5721 293.01 C 32.5438 282.582 29.5722 181.776 29.5722 181.776 Z" stroke-linecap="round" />
</g>
<g transform="matrix(1 0 0 1 391.2 255.64)"  >
<path style="stroke: none; stroke-width: 1; stroke-dasharray: none; stroke-linecap: butt; stroke-dashoffset: 0; stroke-linejoin: miter; stroke-miterlimit: 4; fill: rgb(23,7,7); fill-rule: nonzero; opacity: 1;" vector-effect="non-scaling-stroke"  transform=" translate(-138.59, -120.6)" d="M 145.313 127.268 L 146.463 117.092 C 146.76 114.524 146.346 111.902 145.295 109.69 C 144.623 108.253 143.709 107.033 142.621 106.121 C 141.533 105.209 140.3 104.63 139.015 104.426 L 137.326 104.108 C 136.865 104.017 136.394 104.046 135.942 104.193 C 135.49 104.34 135.064 104.603 134.691 104.964 C 134.316 105.324 133.999 105.776 133.759 106.296 C 133.52 106.815 133.362 107.391 133.295 107.99 L 130.652 131.434 C 130.546 132.39 130.674 133.366 131.018 134.223 C 131.363 135.08 131.906 135.775 132.572 136.21 C 132.768 136.342 132.974 136.449 133.187 136.528 C 133.34 136.585 133.496 136.629 133.653 136.659 L 135.539 137.022 C 136.689 137.246 137.862 137.163 138.985 136.778 C 140.109 136.393 141.159 135.714 142.073 134.783 C 142.27 134.58 142.463 134.368 142.647 134.145 C 144.108 132.308 145.047 129.885 145.313 127.268 Z" stroke-linecap="round" />
</g>
<g transform="matrix(1 0 0 1 386.02 255.21)"  >
<path style="stroke: none; stroke-width: 1; stroke-dasharray: none; stroke-linecap: butt; stroke-dashoffset: 0; stroke-linejoin: miter; stroke-miterlimit: 4; fill: rgb(255,255,255); fill-rule: nonzero; opacity: 1;" vector-effect="non-scaling-stroke"  transform=" translate(-133.4, -120.17)" d="M 136.187 104.125 C 135.644 104.247 135.131 104.535 134.691 104.964 C 134.316 105.324 133.999 105.776 133.759 106.296 C 133.52 106.815 133.362 107.391 133.295 107.99 L 130.652 131.434 C 130.546 132.39 130.674 133.366 131.018 134.223 C 131.363 135.08 131.906 135.775 132.572 136.21 L 136.187 104.125 Z" stroke-linecap="round" />
</g>
<g transform="matrix(1 0 0 1 397.2 256.96)"  >
<path style="stroke: none; stroke-width: 1; stroke-dasharray: none; stroke-linecap: butt; stroke-dashoffset: 0; stroke-linejoin: miter; stroke-miterlimit: 4; fill: rgb(63,61,86); fill-rule: nonzero; opacity: 1;" vector-effect="non-scaling-stroke"  transform=" translate(-144.59, -121.92)" d="M 145.313 127.268 L 146.463 117.092 C 146.76 114.524 146.346 111.902 145.295 109.69 L 142.667 133.016 C 142.622 133.39 142.616 133.769 142.647 134.145 C 144.108 132.308 145.047 129.885 145.313 127.268 L 145.313 127.268 Z" stroke-linecap="round" />
</g>
<g transform="matrix(1 0 0 1 388.82 261.5)"  >
<path style="stroke: none; stroke-width: 1; stroke-dasharray: none; stroke-linecap: butt; stroke-dashoffset: 0; stroke-linejoin: miter; stroke-miterlimit: 4; fill: rgb(63,61,86); fill-rule: nonzero; opacity: 1;" vector-effect="non-scaling-stroke"  transform=" translate(-136.21, -126.45)" d="M 135.668 131.301 C 136.405 131.442 137.248 129.385 137.55 126.707 C 137.852 124.03 137.498 121.745 136.761 121.604 C 136.023 121.463 135.18 123.519 134.878 126.197 C 134.576 128.875 134.93 131.16 135.668 131.301 Z" stroke-linecap="round" />
</g>
<g transform="matrix(1 0 0 1 389.95 248.81)"  >
<path style="stroke: none; stroke-width: 1; stroke-dasharray: none; stroke-linecap: butt; stroke-dashoffset: 0; stroke-linejoin: miter; stroke-miterlimit: 4; fill: rgb(63,61,86); fill-rule: nonzero; opacity: 1;" vector-effect="non-scaling-stroke"  transform=" translate(-137.34, -113.76)" d="M 136.796 118.61 C 137.534 118.751 138.377 116.695 138.678 114.017 C 138.98 111.339 138.627 109.054 137.889 108.913 C 137.151 108.772 136.309 110.829 136.007 113.507 C 135.705 116.185 136.058 118.47 136.796 118.61 Z" stroke-linecap="round" />
</g>
<g transform="matrix(1 0 0 1 398.77 257.21)"  >
<path style="stroke: none; stroke-width: 1; stroke-dasharray: none; stroke-linecap: butt; stroke-dashoffset: 0; stroke-linejoin: miter; stroke-miterlimit: 4; fill: rgb(63,61,86); fill-rule: nonzero; opacity: 1;" vector-effect="non-scaling-stroke"  transform=" translate(-146.16, -122.16)" d="M 145.613 127.009 C 146.35 127.15 147.193 125.094 147.495 122.416 C 147.797 119.738 147.443 117.453 146.706 117.312 C 145.968 117.171 145.125 119.228 144.823 121.906 C 144.522 124.583 144.875 126.868 145.613 127.009 Z" stroke-linecap="round" />
</g>
<g transform="matrix(1 0 0 1 309.11 242.45)"  >
<path style="stroke: none; stroke-width: 1; stroke-dasharray: none; stroke-linecap: butt; stroke-dashoffset: 0; stroke-linejoin: miter; stroke-miterlimit: 4; fill: rgb(23,7,7); fill-rule: nonzero; opacity: 1;" vector-effect="non-scaling-stroke"  transform=" translate(-56.49, -107.41)" d="M 62.4689 119.162 L 63.2484 96.1345 C 63.2782 95.3043 63.1182 94.481 62.7883 93.7678 C 62.4585 93.0547 61.9736 92.4835 61.3946 92.1261 C 61.2305 92.0272 61.061 91.9443 60.8875 91.8781 C 60.6425 91.7876 60.3901 91.7347 60.1356 91.7205 L 58.4815 91.626 C 56.3518 91.505 54.273 92.4843 52.7013 94.349 C 51.1296 96.2138 50.1935 98.8116 50.0982 101.572 L 49.7463 111.902 C 49.6507 114.329 50.1726 116.73 51.2316 118.737 C 51.4045 119.057 51.5919 119.363 51.7927 119.654 C 52.506 120.686 53.3713 121.523 54.3377 122.115 C 55.304 122.706 56.3518 123.041 57.4192 123.1 L 59.068 123.192 C 59.5029 123.222 59.9377 123.134 60.3449 122.934 C 60.9479 122.65 61.4717 122.139 61.8499 121.467 C 62.2281 120.796 62.4436 119.993 62.4689 119.162 Z" stroke-linecap="round" />
</g>
<g transform="matrix(1 0 0 1 306.79 242.17)"  >
<path style="stroke: none; stroke-width: 1; stroke-dasharray: none; stroke-linecap: butt; stroke-dashoffset: 0; stroke-linejoin: miter; stroke-miterlimit: 4; fill: rgb(63,61,86); fill-rule: nonzero; opacity: 1;" vector-effect="non-scaling-stroke"  transform=" translate(-54.17, -107.12)" d="M 54.0059 112.02 C 54.7508 112.064 55.4287 109.907 55.5201 107.203 C 55.6114 104.499 55.0816 102.272 54.3368 102.228 C 53.5919 102.185 52.914 104.342 52.8226 107.046 C 52.7313 109.75 53.2611 111.977 54.0059 112.02 Z" stroke-linecap="round" />
</g>
<g transform="matrix(1 0 0 1 301.15 242.24)"  >
<path style="stroke: none; stroke-width: 1; stroke-dasharray: none; stroke-linecap: butt; stroke-dashoffset: 0; stroke-linejoin: miter; stroke-miterlimit: 4; fill: rgb(63,61,86); fill-rule: nonzero; opacity: 1;" vector-effect="non-scaling-stroke"  transform=" translate(-48.53, -107.2)" d="M 48.3683 112.096 C 49.1132 112.139 49.7911 109.982 49.8825 107.279 C 49.9738 104.575 49.444 102.347 48.6991 102.304 C 47.9543 102.26 47.2764 104.417 47.185 107.121 C 47.0937 109.825 47.6235 112.052 48.3683 112.096 Z" stroke-linecap="round" />
</g>
<g transform="matrix(1 0 0 1 313.62 242.57)"  >
<path style="stroke: none; stroke-width: 1; stroke-dasharray: none; stroke-linecap: butt; stroke-dashoffset: 0; stroke-linejoin: miter; stroke-miterlimit: 4; fill: rgb(255,255,255); fill-rule: nonzero; opacity: 1;" vector-effect="non-scaling-stroke"  transform=" translate(-61.01, -107.54)" d="M 61.7674 119.176 L 62.5469 96.1489 C 62.5776 95.2502 62.4032 94.3593 62.0454 93.5879 C 61.6876 92.8165 61.1624 92.1988 60.5355 91.8121 L 59.4673 123.262 C 60.1194 122.952 60.6858 122.399 61.0952 121.671 C 61.5046 120.944 61.7385 120.076 61.7674 119.176 L 61.7674 119.176 Z" stroke-linecap="round" />
</g>
<g transform="matrix(1 0 0 1 302.49 242.29)"  >
<path style="stroke: none; stroke-width: 1; stroke-dasharray: none; stroke-linecap: butt; stroke-dashoffset: 0; stroke-linejoin: miter; stroke-miterlimit: 4; fill: rgb(63,61,86); fill-rule: nonzero; opacity: 1;" vector-effect="non-scaling-stroke"  transform=" translate(-49.87, -107.25)" d="M 50.9734 97.6457 C 50.9959 97.0056 50.9135 96.3665 50.7317 95.7704 C 49.7517 97.4458 49.1908 99.4703 49.1244 101.572 L 48.7725 111.902 C 48.6769 114.329 49.1988 116.73 50.2578 118.737 L 50.9734 97.6457 Z" stroke-linecap="round" />
</g>
<g transform="matrix(1 0 0 1 781.12 469.54)"  >
<path style="stroke: none; stroke-width: 1; stroke-dasharray: none; stroke-linecap: butt; stroke-dashoffset: 0; stroke-linejoin: miter; stroke-miterlimit: 4; fill: rgb(63,61,86); fill-rule: nonzero; opacity: 1;" vector-effect="non-scaling-stroke"  transform=" translate(-528.5, -334.5)" d="M 607.643 276.608 L 543.235 276.608 L 543.235 276.2 C 543.235 275.881 543.131 275.576 542.945 275.351 C 542.76 275.126 542.508 275 542.245 275 L 515.02 275 C 514.758 275 514.506 275.126 514.32 275.351 C 514.135 275.576 514.03 275.881 514.03 276.2 L 514.03 276.608 L 449.357 276.608 C 448.201 276.608 447.093 277.164 446.276 278.154 C 445.459 279.144 445 280.486 445 281.886 L 445 388.722 C 445 390.122 445.459 391.464 446.276 392.454 C 447.093 393.444 448.201 394 449.357 394 L 607.643 394 C 608.799 394 609.907 393.444 610.724 392.454 C 611.541 391.464 612 390.122 612 388.722 L 612 281.886 C 612 280.486 611.541 279.144 610.724 278.154 C 609.907 277.164 608.799 276.608 607.643 276.608 Z" stroke-linecap="round" />
</g>
<g transform="matrix(1 0 0 1 781.12 475.04)"  >
<path style="stroke: none; stroke-width: 1; stroke-dasharray: none; stroke-linecap: butt; stroke-dashoffset: 0; stroke-linejoin: miter; stroke-miterlimit: 4; fill: rgb(242,242,242); fill-rule: nonzero; opacity: 1;" vector-effect="non-scaling-stroke"  transform=" translate(-528.5, -340)" d="M 452.41 289 C 452.301 289 452.197 289.052 452.12 289.144 C 452.043 289.237 452 289.362 452 289.492 L 452 390.508 C 452 390.638 452.043 390.763 452.12 390.856 C 452.197 390.948 452.301 391 452.41 391 L 604.59 391 C 604.699 391 604.803 390.948 604.88 390.856 C 604.957 390.763 605 390.638 605 390.508 L 605 340 L 605 289.492 C 605 289.362 604.957 289.237 604.88 289.144 C 604.803 289.052 604.699 289 604.59 289 L 452.41 289 Z" stroke-linecap="round" />
</g>
<g transform="matrix(1 0 0 1 801.62 417.04)"  >
<path style="stroke: none; stroke-width: 1; stroke-dasharray: none; stroke-linecap: butt; stroke-dashoffset: 0; stroke-linejoin: miter; stroke-miterlimit: 4; fill: rgb(96,89,89); fill-rule: nonzero; opacity: 1;" vector-effect="non-scaling-stroke"  transform=" translate(-549, -282)" d="M 549 284 C 550.105 284 551 283.105 551 282 C 551 280.895 550.105 280 549 280 C 547.895 280 547 280.895 547 282 C 547 283.105 547.895 284 549 284 Z" stroke-linecap="round" />
</g>
<g transform="matrix(1 0 0 1 781.12 531.04)"  >
<path style="stroke: none; stroke-width: 1; stroke-dasharray: none; stroke-linecap: butt; stroke-dashoffset: 0; stroke-linejoin: miter; stroke-miterlimit: 4; fill: rgb(63,61,86); fill-rule: nonzero; opacity: 1;" vector-effect="non-scaling-stroke"  transform=" translate(-528.5, -396)" d="M 611.979 388.479 L 597.333 388.479 L 597.333 385.315 C 597.333 385.141 597.24 385 597.124 385 L 592.103 385 C 591.987 385 591.894 385.141 591.894 385.315 L 591.894 388.479 L 588.755 388.479 L 588.755 385.315 C 588.755 385.141 588.662 385 588.546 385 L 583.525 385 C 583.409 385 583.316 385.141 583.316 385.315 L 583.316 388.479 L 580.177 388.479 L 580.177 385.315 C 580.177 385.141 580.084 385 579.968 385 L 574.947 385 C 574.831 385 574.738 385.141 574.738 385.315 L 574.738 388.479 L 571.599 388.479 L 571.599 385.315 C 571.599 385.141 571.506 385 571.39 385 L 566.369 385 C 566.253 385 566.16 385.141 566.16 385.315 L 566.16 388.479 L 563.021 388.479 L 563.021 385.315 C 563.021 385.141 562.928 385 562.812 385 L 557.791 385 C 557.675 385 557.582 385.141 557.582 385.315 L 557.582 388.479 L 554.443 388.479 L 554.443 385.315 C 554.443 385.141 554.35 385 554.234 385 L 549.213 385 C 549.097 385 549.004 385.141 549.004 385.315 L 549.004 388.479 L 545.865 388.479 L 545.865 385.315 C 545.865 385.141 545.772 385 545.656 385 L 506.323 385 C 506.207 385 506.113 385.141 506.113 385.315 L 506.113 388.479 L 502.975 388.479 L 502.975 385.315 C 502.975 385.141 502.882 385 502.766 385 L 497.745 385 C 497.629 385 497.535 385.141 497.535 385.315 L 497.535 388.479 L 494.397 388.479 L 494.397 385.315 C 494.397 385.141 494.303 385 494.188 385 L 489.167 385 C 489.051 385 488.957 385.141 488.957 385.315 L 488.957 388.479 L 485.819 388.479 L 485.819 385.315 C 485.819 385.141 485.725 385 485.61 385 L 480.589 385 C 480.473 385 480.379 385.141 480.379 385.315 L 480.379 388.479 L 477.241 388.479 L 477.241 385.315 C 477.241 385.141 477.147 385 477.032 385 L 472.011 385 C 471.895 385 471.801 385.141 471.801 385.315 L 471.801 388.479 L 468.663 388.479 L 468.663 385.315 C 468.663 385.141 468.569 385 468.454 385 L 463.433 385 C 463.317 385 463.223 385.141 463.223 385.315 L 463.223 388.479 L 460.085 388.479 L 460.085 385.315 C 460.085 385.141 459.991 385 459.876 385 L 454.855 385 C 454.739 385 454.645 385.141 454.645 385.315 L 454.645 388.479 L 445.021 388.479 C 442.248 388.479 440 391.861 440 396.032 L 440 399.447 C 440 403.619 442.248 407 445.021 407 L 611.979 407 C 614.752 407 617 403.619 617 399.447 L 617 396.032 C 617 391.861 614.752 388.479 611.979 388.479 Z" stroke-linecap="round" />
</g>
<g transform="matrix(1 0 0 1 750.8 448.4)"  >
<path style="stroke: none; stroke-width: 1; stroke-dasharray: none; stroke-linecap: butt; stroke-dashoffset: 0; stroke-linejoin: miter; stroke-miterlimit: 4; fill: rgb(78,63,63); fill-rule: nonzero; opacity: 1;" vector-effect="non-scaling-stroke"  transform=" translate(-498.2, -313.36)" d="M 508.592 309.914 L 487.807 309.914 L 487.807 316.799 L 508.592 316.799 L 508.592 309.914 Z" stroke-linecap="round" />
</g>
<g transform="matrix(1 0 0 1 829.53 448.4)"  >
<path style="stroke: none; stroke-width: 1; stroke-dasharray: none; stroke-linecap: butt; stroke-dashoffset: 0; stroke-linejoin: miter; stroke-miterlimit: 4; fill: rgb(78,63,63); fill-rule: nonzero; opacity: 1;" vector-effect="non-scaling-stroke"  transform=" translate(-576.91, -313.36)" d="M 580.569 309.914 L 573.256 309.914 L 573.256 316.799 L 580.569 316.799 L 580.569 309.914 Z" stroke-linecap="round" />
</g>
<g transform="matrix(1 0 0 1 844.16 448.4)"  >
<path style="stroke: none; stroke-width: 1; stroke-dasharray: none; stroke-linecap: butt; stroke-dashoffset: 0; stroke-linejoin: miter; stroke-miterlimit: 4; fill: rgb(78,63,63); fill-rule: nonzero; opacity: 1;" vector-effect="non-scaling-stroke"  transform=" translate(-591.54, -313.36)" d="M 595.195 309.914 L 587.882 309.914 L 587.882 316.799 L 595.195 316.799 L 595.195 309.914 Z" stroke-linecap="round" />
</g>
<g transform="matrix(1 0 0 1 793.34 448.4)"  >
<path style="stroke: none; stroke-width: 1; stroke-dasharray: none; stroke-linecap: butt; stroke-dashoffset: 0; stroke-linejoin: miter; stroke-miterlimit: 4; fill: rgb(78,63,63); fill-rule: nonzero; opacity: 1;" vector-effect="non-scaling-stroke"  transform=" translate(-540.73, -313.36)" d="M 565.558 309.914 L 515.905 309.914 L 515.905 316.799 L 565.558 316.799 L 565.558 309.914 Z" stroke-linecap="round" />
</g>
<g transform="matrix(1 0 0 1 724.64 492.88)"  >
<path style="stroke: none; stroke-width: 1; stroke-dasharray: none; stroke-linecap: butt; stroke-dashoffset: 0; stroke-linejoin: miter; stroke-miterlimit: 4; fill: rgb(78,63,63); fill-rule: nonzero; opacity: 1;" vector-effect="non-scaling-stroke"  transform=" translate(-472.03, -357.84)" d="M 482.418 354.402 L 461.633 354.402 L 461.633 361.287 L 482.418 361.287 L 482.418 354.402 Z" stroke-linecap="round" />
</g>
<g transform="matrix(1 0 0 1 803.35 492.88)"  >
<path style="stroke: none; stroke-width: 1; stroke-dasharray: none; stroke-linecap: butt; stroke-dashoffset: 0; stroke-linejoin: miter; stroke-miterlimit: 4; fill: rgb(78,63,63); fill-rule: nonzero; opacity: 1;" vector-effect="non-scaling-stroke"  transform=" translate(-550.74, -357.84)" d="M 554.395 354.402 L 547.082 354.402 L 547.082 361.287 L 554.395 361.287 L 554.395 354.402 Z" stroke-linecap="round" />
</g>
<g transform="matrix(1 0 0 1 817.98 492.88)"  >
<path style="stroke: none; stroke-width: 1; stroke-dasharray: none; stroke-linecap: butt; stroke-dashoffset: 0; stroke-linejoin: miter; stroke-miterlimit: 4; fill: rgb(78,63,63); fill-rule: nonzero; opacity: 1;" vector-effect="non-scaling-stroke"  transform=" translate(-565.37, -357.84)" d="M 569.022 354.402 L 561.709 354.402 L 561.709 361.287 L 569.022 361.287 L 569.022 354.402 Z" stroke-linecap="round" />
</g>
<g transform="matrix(1 0 0 1 767.18 492.88)"  >
<path style="stroke: none; stroke-width: 1; stroke-dasharray: none; stroke-linecap: butt; stroke-dashoffset: 0; stroke-linejoin: miter; stroke-miterlimit: 4; fill: rgb(78,63,63); fill-rule: nonzero; opacity: 1;" vector-effect="non-scaling-stroke"  transform=" translate(-514.56, -357.84)" d="M 539.384 354.402 L 489.731 354.402 L 489.731 361.287 L 539.384 361.287 L 539.384 354.402 Z" stroke-linecap="round" />
</g>
<g transform="matrix(1 0 0 1 810.47 463.75)"  >
<path style="stroke: none; stroke-width: 1; stroke-dasharray: none; stroke-linecap: butt; stroke-dashoffset: 0; stroke-linejoin: miter; stroke-miterlimit: 4; fill: rgb(78,63,63); fill-rule: nonzero; opacity: 1;" vector-effect="non-scaling-stroke"  transform=" translate(-557.86, -328.72)" d="M 568.252 325.273 L 547.467 325.273 L 547.467 332.158 L 568.252 332.158 L 568.252 325.273 Z" stroke-linecap="round" />
</g>
<g transform="matrix(1 0 0 1 838.56 463.75)"  >
<path style="stroke: none; stroke-width: 1; stroke-dasharray: none; stroke-linecap: butt; stroke-dashoffset: 0; stroke-linejoin: miter; stroke-miterlimit: 4; fill: rgb(78,63,63); fill-rule: nonzero; opacity: 1;" vector-effect="non-scaling-stroke"  transform=" translate(-585.96, -328.72)" d="M 596.35 325.273 L 575.565 325.273 L 575.565 332.158 L 596.35 332.158 L 596.35 325.273 Z" stroke-linecap="round" />
</g>
<g transform="matrix(1 0 0 1 717.91 463.75)"  >
<path style="stroke: none; stroke-width: 1; stroke-dasharray: none; stroke-linecap: butt; stroke-dashoffset: 0; stroke-linejoin: miter; stroke-miterlimit: 4; fill: rgb(78,63,63); fill-rule: nonzero; opacity: 1;" vector-effect="non-scaling-stroke"  transform=" translate(-465.29, -328.72)" d="M 468.947 325.273 L 461.633 325.273 L 461.633 332.158 L 468.947 332.158 L 468.947 325.273 Z" stroke-linecap="round" />
</g>
<g transform="matrix(1 0 0 1 732.54 463.75)"  >
<path style="stroke: none; stroke-width: 1; stroke-dasharray: none; stroke-linecap: butt; stroke-dashoffset: 0; stroke-linejoin: miter; stroke-miterlimit: 4; fill: rgb(78,63,63); fill-rule: nonzero; opacity: 1;" vector-effect="non-scaling-stroke"  transform=" translate(-479.92, -328.72)" d="M 483.573 325.273 L 476.26 325.273 L 476.26 332.158 L 483.573 332.158 L 483.573 325.273 Z" stroke-linecap="round" />
</g>
<g transform="matrix(1 0 0 1 768.33 463.75)"  >
<path style="stroke: none; stroke-width: 1; stroke-dasharray: none; stroke-linecap: butt; stroke-dashoffset: 0; stroke-linejoin: miter; stroke-miterlimit: 4; fill: rgb(78,63,63); fill-rule: nonzero; opacity: 1;" vector-effect="non-scaling-stroke"  transform=" translate(-515.71, -328.72)" d="M 540.539 325.273 L 490.886 325.273 L 490.886 332.158 L 540.539 332.158 L 540.539 325.273 Z" stroke-linecap="round" />
</g>
<g transform="matrix(1 0 0 1 767.36 478.58)"  >
<path style="stroke: none; stroke-width: 1; stroke-dasharray: none; stroke-linecap: butt; stroke-dashoffset: 0; stroke-linejoin: miter; stroke-miterlimit: 4; fill: rgb(78,63,63); fill-rule: nonzero; opacity: 1;" vector-effect="non-scaling-stroke"  transform=" translate(-514.75, -343.54)" d="M 525.143 340.102 L 504.358 340.102 L 504.358 346.987 L 525.143 346.987 L 525.143 340.102 Z" stroke-linecap="round" />
</g>
<g transform="matrix(1 0 0 1 739.27 478.58)"  >
<path style="stroke: none; stroke-width: 1; stroke-dasharray: none; stroke-linecap: butt; stroke-dashoffset: 0; stroke-linejoin: miter; stroke-miterlimit: 4; fill: rgb(78,63,63); fill-rule: nonzero; opacity: 1;" vector-effect="non-scaling-stroke"  transform=" translate(-486.65, -343.54)" d="M 497.045 340.102 L 476.26 340.102 L 476.26 346.987 L 497.045 346.987 L 497.045 340.102 Z" stroke-linecap="round" />
</g>
<g transform="matrix(1 0 0 1 717.91 478.58)"  >
<path style="stroke: none; stroke-width: 1; stroke-dasharray: none; stroke-linecap: butt; stroke-dashoffset: 0; stroke-linejoin: miter; stroke-miterlimit: 4; fill: rgb(78,63,63); fill-rule: nonzero; opacity: 1;" vector-effect="non-scaling-stroke"  transform=" translate(-465.29, -343.54)" d="M 468.947 340.102 L 461.633 340.102 L 461.633 346.987 L 468.947 346.987 L 468.947 340.102 Z" stroke-linecap="round" />
</g>
<g transform="matrix(1 0 0 1 845.3 478.58)"  >
<path style="stroke: none; stroke-width: 1; stroke-dasharray: none; stroke-linecap: butt; stroke-dashoffset: 0; stroke-linejoin: miter; stroke-miterlimit: 4; fill: rgb(78,63,63); fill-rule: nonzero; opacity: 1;" vector-effect="non-scaling-stroke"  transform=" translate(-592.69, -343.54)" d="M 596.35 340.102 L 589.037 340.102 L 589.037 346.987 L 596.35 346.987 L 596.35 340.102 Z" stroke-linecap="round" />
</g>
<g transform="matrix(1 0 0 1 809.52 478.58)"  >
<path style="stroke: none; stroke-width: 1; stroke-dasharray: none; stroke-linecap: butt; stroke-dashoffset: 0; stroke-linejoin: miter; stroke-miterlimit: 4; fill: rgb(78,63,63); fill-rule: nonzero; opacity: 1;" vector-effect="non-scaling-stroke"  transform=" translate(-556.9, -343.54)" d="M 581.724 340.102 L 532.071 340.102 L 532.071 346.987 L 581.724 346.987 L 581.724 340.102 Z" stroke-linecap="round" />
</g>
</svg>
