<svg width="706" height="655" viewBox="0 0 706 655" fill="none" xmlns="http://www.w3.org/2000/svg">
<path d="M562.86 9.45862H540.59C539.902 9.461 539.243 9.73599 538.758 10.2233C538.272 10.7107 538 11.3706 538 12.0585V34.3285C538 35.0153 538.273 35.6741 538.759 36.1598C539.244 36.6455 539.903 36.9184 540.59 36.9185H562.86C563.548 36.9188 564.208 36.6463 564.695 36.1608C565.183 35.6753 565.458 35.0164 565.46 34.3285V12.0585C565.458 11.3695 565.183 10.7094 564.696 10.2223C564.209 9.73516 563.549 9.46062 562.86 9.45862V9.45862Z" fill="#FF6584"/>
<path d="M562.86 47.4086H540.59C539.902 47.411 539.243 47.686 538.758 48.1733C538.272 48.6607 538 49.3207 538 50.0086V72.2786C538 72.9654 538.273 73.6241 538.759 74.1098C539.244 74.5955 539.903 74.8684 540.59 74.8686H562.86C563.548 74.8688 564.208 74.5964 564.695 74.1109C565.183 73.6254 565.458 72.9665 565.46 72.2786V50.0086C565.458 49.3196 565.183 48.6595 564.696 48.1723C564.209 47.6851 563.549 47.4106 562.86 47.4086Z" fill="#FF6584"/>
<path d="M562.86 85.3585H540.59C539.902 85.3609 539.243 85.636 538.758 86.1234C538.272 86.6107 538 87.2707 538 87.9586V110.219C537.999 110.559 538.065 110.897 538.195 111.212C538.325 111.528 538.515 111.814 538.756 112.056C538.996 112.297 539.282 112.489 539.597 112.62C539.912 112.751 540.249 112.818 540.59 112.818H562.86C563.549 112.818 564.211 112.544 564.698 112.057C565.186 111.569 565.46 110.908 565.46 110.219V87.9586C565.458 87.2697 565.183 86.6095 564.696 86.1223C564.209 85.6351 563.549 85.3606 562.86 85.3585V85.3585Z" fill="#E6E6E6"/>
<path d="M562.86 123.308H540.59C539.902 123.311 539.243 123.586 538.758 124.073C538.272 124.561 538 125.221 538 125.909V148.169C537.999 148.509 538.065 148.847 538.195 149.162C538.325 149.478 538.515 149.764 538.756 150.006C538.996 150.247 539.282 150.439 539.597 150.57C539.912 150.701 540.249 150.768 540.59 150.769H562.86C563.549 150.768 564.211 150.494 564.698 150.007C565.186 149.519 565.46 148.858 565.46 148.169V125.909C565.458 125.22 565.183 124.559 564.696 124.072C564.209 123.585 563.549 123.311 562.86 123.308V123.308Z" fill="white"/>
<path d="M562.86 161.259H540.59C540.249 161.259 539.912 161.326 539.597 161.457C539.282 161.588 538.996 161.78 538.756 162.021C538.515 162.263 538.325 162.55 538.195 162.865C538.065 163.18 537.999 163.518 538 163.859V186.119C537.999 186.459 538.065 186.797 538.195 187.112C538.325 187.428 538.515 187.714 538.756 187.956C538.996 188.197 539.282 188.389 539.597 188.52C539.912 188.651 540.249 188.718 540.59 188.719H562.86C563.549 188.718 564.211 188.444 564.698 187.957C565.186 187.469 565.46 186.808 565.46 186.119V163.859C565.46 163.169 565.186 162.508 564.698 162.02C564.211 161.533 563.549 161.259 562.86 161.259Z" fill="#FF6584"/>
<path d="M609.62 9.45862H587.35C586.662 9.461 586.003 9.73599 585.518 10.2233C585.032 10.7107 584.76 11.3706 584.76 12.0585V34.3285C584.76 35.0153 585.033 35.6741 585.519 36.1598C586.004 36.6455 586.663 36.9184 587.35 36.9185H609.62C610.308 36.9188 610.968 36.6463 611.455 36.1608C611.943 35.6753 612.218 35.0164 612.22 34.3285V12.0585C612.218 11.3696 611.943 10.7094 611.456 10.2223C610.969 9.73516 610.309 9.46062 609.62 9.45862Z" fill="#FF6584"/>
<path d="M609.62 47.4086H587.35C586.662 47.411 586.003 47.686 585.518 48.1733C585.032 48.6607 584.76 49.3207 584.76 50.0086V72.2786C584.76 72.9654 585.033 73.6241 585.519 74.1098C586.004 74.5955 586.663 74.8684 587.35 74.8686H609.62C610.308 74.8688 610.968 74.5964 611.455 74.1109C611.943 73.6254 612.218 72.9665 612.22 72.2786V50.0086C612.218 49.3196 611.943 48.6595 611.456 48.1723C610.969 47.6851 610.309 47.4106 609.62 47.4086V47.4086Z" fill="#FF6584"/>
<path d="M609.62 85.3585H587.35C586.662 85.3609 586.003 85.636 585.518 86.1234C585.032 86.6107 584.76 87.2707 584.76 87.9586V110.219C584.759 110.559 584.825 110.897 584.955 111.212C585.085 111.528 585.275 111.814 585.516 112.056C585.756 112.297 586.042 112.489 586.357 112.62C586.672 112.751 587.009 112.818 587.35 112.818H609.62C610.309 112.818 610.971 112.544 611.458 112.057C611.946 111.569 612.22 110.908 612.22 110.219V87.9586C612.218 87.2697 611.943 86.6095 611.456 86.1223C610.969 85.6351 610.309 85.3606 609.62 85.3585Z" fill="#E6E6E6"/>
<path d="M609.62 123.308H587.35C586.662 123.311 586.003 123.586 585.518 124.073C585.032 124.561 584.76 125.221 584.76 125.909V148.169C584.759 148.509 584.825 148.847 584.955 149.162C585.085 149.478 585.275 149.764 585.516 150.006C585.756 150.247 586.042 150.439 586.357 150.57C586.672 150.701 587.009 150.768 587.35 150.769H609.62C610.309 150.768 610.971 150.494 611.458 150.007C611.946 149.519 612.22 148.858 612.22 148.169V125.909C612.218 125.22 611.943 124.559 611.456 124.072C610.969 123.585 610.309 123.311 609.62 123.308V123.308Z" fill="#FF6584"/>
<path d="M609.62 161.259H587.35C587.009 161.259 586.672 161.326 586.357 161.457C586.042 161.588 585.756 161.78 585.516 162.021C585.275 162.263 585.085 162.55 584.955 162.865C584.825 163.18 584.759 163.518 584.76 163.859V186.119C584.759 186.459 584.825 186.797 584.955 187.112C585.085 187.428 585.275 187.714 585.516 187.956C585.756 188.197 586.042 188.389 586.357 188.52C586.672 188.651 587.009 188.718 587.35 188.719H609.62C610.309 188.718 610.971 188.444 611.458 187.957C611.946 187.469 612.22 186.808 612.22 186.119V163.859C612.22 163.169 611.946 162.508 611.458 162.02C610.971 161.533 610.309 161.259 609.62 161.259V161.259Z" fill="#FF6584"/>
<path d="M656.38 9.45862H634.11C633.422 9.461 632.763 9.73599 632.278 10.2233C631.792 10.7107 631.52 11.3706 631.52 12.0585V34.3285C631.52 35.0153 631.793 35.6741 632.279 36.1598C632.764 36.6455 633.423 36.9184 634.11 36.9185H656.38C657.068 36.9188 657.728 36.6463 658.215 36.1608C658.703 35.6753 658.978 35.0164 658.98 34.3285V12.0585C658.978 11.3696 658.703 10.7094 658.216 10.2223C657.729 9.73516 657.069 9.46062 656.38 9.45862V9.45862Z" fill="#E6E6E6"/>
<path d="M656.38 47.4086H634.11C633.422 47.411 632.763 47.686 632.278 48.1733C631.792 48.6607 631.52 49.3207 631.52 50.0086V72.2786C631.52 72.9654 631.793 73.6241 632.279 74.1098C632.764 74.5955 633.423 74.8684 634.11 74.8686H656.38C657.068 74.8688 657.728 74.5964 658.215 74.1109C658.703 73.6254 658.978 72.9665 658.98 72.2786V50.0086C658.978 49.3196 658.703 48.6595 658.216 48.1723C657.729 47.6851 657.069 47.4106 656.38 47.4086V47.4086Z" fill="#FF6584"/>
<path d="M656.38 85.3585H634.11C633.422 85.3609 632.763 85.636 632.278 86.1234C631.792 86.6107 631.52 87.2707 631.52 87.9586V110.219C631.519 110.559 631.585 110.897 631.715 111.212C631.845 111.528 632.035 111.814 632.276 112.056C632.516 112.297 632.802 112.489 633.117 112.62C633.432 112.751 633.769 112.818 634.11 112.818H656.38C657.069 112.818 657.731 112.544 658.218 112.057C658.706 111.569 658.98 110.908 658.98 110.219V87.9586C658.978 87.2697 658.703 86.6095 658.216 86.1223C657.729 85.6351 657.069 85.3606 656.38 85.3585V85.3585Z" fill="#FF6584"/>
<path d="M656.38 123.308H634.11C633.422 123.311 632.763 123.586 632.278 124.073C631.792 124.561 631.52 125.221 631.52 125.909V148.169C631.519 148.509 631.585 148.847 631.715 149.162C631.845 149.478 632.035 149.764 632.276 150.006C632.516 150.247 632.802 150.439 633.117 150.57C633.432 150.701 633.769 150.768 634.11 150.769H656.38C657.069 150.768 657.731 150.494 658.218 150.007C658.706 149.519 658.98 148.858 658.98 148.169V125.909C658.978 125.22 658.703 124.559 658.216 124.072C657.729 123.585 657.069 123.311 656.38 123.308V123.308Z" fill="#FF6584"/>
<path d="M656.38 161.259H634.11C633.769 161.259 633.432 161.326 633.117 161.457C632.802 161.588 632.516 161.78 632.276 162.021C632.035 162.263 631.845 162.55 631.715 162.865C631.585 163.18 631.519 163.518 631.52 163.859V186.119C631.519 186.459 631.585 186.797 631.715 187.112C631.845 187.428 632.035 187.714 632.276 187.956C632.516 188.197 632.802 188.389 633.117 188.52C633.432 188.651 633.769 188.718 634.11 188.719H656.38C657.069 188.718 657.731 188.444 658.218 187.957C658.706 187.469 658.98 186.808 658.98 186.119V163.859C658.98 163.169 658.706 162.508 658.218 162.02C657.731 161.533 657.069 161.259 656.38 161.259V161.259Z" fill="#E6E6E6"/>
<path d="M703.14 9.45862H680.87C680.182 9.46101 679.523 9.736 679.038 10.2233C678.552 10.7107 678.28 11.3706 678.28 12.0585V34.3285C678.28 35.0153 678.553 35.6741 679.039 36.1598C679.524 36.6455 680.183 36.9184 680.87 36.9185H703.14C703.828 36.9188 704.488 36.6463 704.975 36.1608C705.463 35.6753 705.738 35.0164 705.74 34.3285V12.0585C705.738 11.3696 705.463 10.7094 704.976 10.2223C704.489 9.73516 703.829 9.46062 703.14 9.45862V9.45862Z" fill="#E6E6E6"/>
<path d="M703.14 47.4086H680.87C680.182 47.411 679.523 47.686 679.038 48.1733C678.552 48.6607 678.28 49.3207 678.28 50.0086V72.2786C678.28 72.9654 678.553 73.6241 679.039 74.1098C679.524 74.5955 680.183 74.8684 680.87 74.8686H703.14C703.828 74.8688 704.488 74.5964 704.975 74.1109C705.463 73.6254 705.738 72.9665 705.74 72.2786V50.0086C705.738 49.3196 705.463 48.6595 704.976 48.1723C704.489 47.6851 703.829 47.4106 703.14 47.4086V47.4086Z" fill="#E6E6E6"/>
<path d="M703.14 85.3585H680.87C680.182 85.3609 679.523 85.636 679.038 86.1234C678.552 86.6107 678.28 87.2707 678.28 87.9586V110.219C678.279 110.559 678.345 110.897 678.475 111.212C678.605 111.528 678.795 111.814 679.036 112.056C679.276 112.297 679.562 112.489 679.877 112.62C680.192 112.751 680.529 112.818 680.87 112.818H703.14C703.829 112.818 704.491 112.544 704.978 112.057C705.466 111.569 705.74 110.908 705.74 110.219V87.9586C705.738 87.2697 705.463 86.6095 704.976 86.1223C704.489 85.6351 703.829 85.3606 703.14 85.3585V85.3585Z" fill="#FF6584"/>
<path d="M703.14 123.308H680.87C680.182 123.311 679.523 123.586 679.038 124.073C678.552 124.561 678.28 125.221 678.28 125.909V148.169C678.279 148.509 678.345 148.847 678.475 149.162C678.605 149.478 678.795 149.764 679.036 150.006C679.276 150.247 679.562 150.439 679.877 150.57C680.192 150.701 680.529 150.768 680.87 150.769H703.14C703.829 150.768 704.491 150.494 704.978 150.007C705.466 149.519 705.74 148.858 705.74 148.169V125.909C705.738 125.22 705.463 124.559 704.976 124.072C704.489 123.585 703.829 123.311 703.14 123.308V123.308Z" fill="#E6E6E6"/>
<path d="M703.14 161.259H680.87C680.529 161.259 680.192 161.326 679.877 161.457C679.562 161.588 679.276 161.78 679.036 162.021C678.795 162.263 678.605 162.55 678.475 162.865C678.345 163.18 678.279 163.518 678.28 163.859V186.119C678.279 186.459 678.345 186.797 678.475 187.112C678.605 187.428 678.795 187.714 679.036 187.956C679.276 188.197 679.562 188.389 679.877 188.52C680.192 188.651 680.529 188.718 680.87 188.719H703.14C703.829 188.718 704.491 188.444 704.978 187.957C705.466 187.469 705.74 186.808 705.74 186.119V163.859C705.74 163.169 705.466 162.508 704.978 162.02C704.491 161.533 703.829 161.259 703.14 161.259V161.259Z" fill="#E6E6E6"/>
<path d="M293.617 146.93C322.88 146.93 346.603 123.102 346.603 93.7076C346.603 64.3136 322.88 40.485 293.617 40.485C264.354 40.485 240.632 64.3136 240.632 93.7076C240.632 123.102 264.354 146.93 293.617 146.93Z" fill="#FF6584"/>
<path d="M455.847 90.9302C451.073 85.864 446.032 81.0579 440.747 76.5326C430.425 67.7401 418.997 60.2638 406.259 55.5541C401.464 53.7751 396.509 52.4648 391.462 51.6413C390.856 51.5429 390.259 51.4443 389.653 51.3637C389.608 51.3593 389.564 51.3593 389.519 51.3637C389.426 51.3372 389.331 51.3193 389.234 51.31C387.995 51.1489 386.756 51.0235 385.508 50.934C378.787 50.4852 372.038 51.0955 365.505 52.7427C361.715 53.7032 358.016 54.9976 354.452 56.6106C350.882 58.3665 347.42 60.3369 344.085 62.5111C342.295 63.6037 340.45 64.6048 338.559 65.5106C333.037 68.1386 327.192 70.0174 321.177 71.0978C317.115 71.8297 313.002 72.2369 308.876 72.3154C305.293 72.3871 301.914 72.5124 298.518 73.8107C294.894 75.1787 291.638 77.3794 289.011 80.2369C286.385 83.0944 284.46 86.5295 283.391 90.2676C283.307 90.5996 283.331 90.9499 283.459 91.2673C283.587 91.5847 283.814 91.8525 284.104 92.0315C285.023 92.6941 285.914 93.4462 286.886 94.0372C287.743 94.4302 288.658 94.6812 289.595 94.7803C291.129 95.1027 292.665 95.4161 294.204 95.7205C299.864 96.8486 305.548 97.8484 311.256 98.72C322.737 100.466 334.283 101.696 345.895 102.409C345.966 102.419 346.037 102.425 346.109 102.427C359.227 103.222 372.377 103.351 385.508 102.812C387.496 102.731 389.475 102.633 391.462 102.516C399.743 102.051 408.003 101.316 416.243 100.314C423.864 99.3825 431.456 98.2275 439.018 96.8486C444.419 95.8637 449.8 94.7654 455.161 93.5536C455.421 93.4763 455.657 93.3328 455.846 93.137C456.035 92.9413 456.171 92.6999 456.24 92.4361C456.309 92.1724 456.309 91.8953 456.24 91.6315C456.171 91.3677 456.036 91.1262 455.847 90.9302V90.9302Z" fill="#E6E6E6"/>
<path d="M345.717 161.897C338.046 153.655 329.594 146.182 320.482 139.585C317.46 137.454 314.349 135.448 311.149 133.612C307.226 131.338 303.151 129.336 298.955 127.622C298.019 127.237 297.074 126.87 296.129 126.521C290.761 124.524 285.193 123.119 279.523 122.331C279.478 122.322 279.434 122.331 279.389 122.322C279.3 122.304 279.202 122.286 279.113 122.268C276.364 121.91 273.595 121.74 270.823 121.758C268.835 121.758 266.838 121.865 264.86 122.062C261.662 122.379 258.493 122.929 255.375 123.71C253.833 124.095 252.3 124.542 250.794 125.053C248.596 125.779 246.439 126.622 244.331 127.578C244.295 127.596 244.269 127.605 244.233 127.622C240.694 129.362 237.265 131.317 233.964 133.478C233.893 133.523 233.813 133.568 233.742 133.612C229.993 135.865 226.027 137.731 221.904 139.182C218.365 140.425 214.735 141.389 211.047 142.065C206.986 142.799 202.872 143.203 198.746 143.274C195.162 143.345 191.784 143.471 188.397 144.778C184.771 146.145 181.514 148.346 178.886 151.203C176.258 154.061 174.332 157.496 173.261 161.235C173.179 161.567 173.203 161.916 173.331 162.233C173.46 162.551 173.685 162.818 173.974 162.999C174.892 163.661 175.793 164.404 176.755 164.995C177.612 165.391 178.527 165.642 179.465 165.738C180.998 166.061 182.532 166.383 184.074 166.688C189.734 167.816 195.421 168.813 201.135 169.678C208.97 170.869 216.838 171.821 224.739 172.534C228.482 172.884 232.229 173.17 235.979 173.394C245.597 173.976 255.224 174.203 264.86 174.074C266.847 174.047 268.835 174.003 270.823 173.94C282.625 173.591 294.391 172.701 306.122 171.272C319.197 169.683 332.183 167.427 345.031 164.512C345.29 164.435 345.526 164.293 345.715 164.098C345.904 163.903 346.039 163.662 346.108 163.399C346.177 163.136 346.178 162.86 346.109 162.597C346.04 162.333 345.905 162.093 345.717 161.897V161.897Z" fill="#E6E6E6"/>
<path d="M192.5 16.9235L220 370.585L165 375.128V21.4231C171.554 16.6589 180.962 15.9135 192.5 16.9235Z" fill="#CCCCCC"/>
<path d="M467.5 16.8039L440 327.468L495 331.459V20.7564C488.446 16.5715 479.038 15.9167 467.5 16.8039Z" fill="#CCCCCC"/>
<path d="M493.24 18.9893C490.367 16.9006 484.258 15.4587 477.194 15.4587H182.809C172.986 15.4587 165.002 18.2529 165.002 21.6907V210.227C164.917 211.971 167.116 213.657 171.138 214.93C173.243 215.585 175.907 216.059 178.848 216.301C180.138 216.407 181.47 216.46 182.809 216.459H477.194C478.532 216.46 479.865 216.407 481.155 216.301C489.076 215.67 495 213.188 495 210.227V21.6907C495.008 20.765 494.411 19.8476 493.24 18.9893V18.9893ZM489.094 210.227C489.094 212.523 483.754 214.392 477.194 214.392H182.809C177.371 214.392 172.765 213.107 171.359 211.359C171.059 210.988 170.907 210.608 170.908 210.227V21.6907C170.908 19.3947 176.248 17.5288 182.809 17.5288H477.194C478.401 17.5285 479.599 17.5925 480.73 17.7176C485.566 18.2436 489.094 19.8248 489.094 21.6907V210.227Z" fill="#CCCCCC"/>
<path d="M491.733 211.281H164.981V217.266H491.733V211.281Z" fill="#CCCCCC"/>
<path d="M491.733 87.7193H164.981V93.705H491.733V87.7193Z" fill="#CCCCCC"/>
<path d="M491.733 311.042H164.981V317.027H491.733V311.042Z" fill="#CCCCCC"/>
<path d="M271.015 18.2122H265.056V383.781H271.015V18.2122Z" fill="#CCCCCC"/>
<path d="M391.658 18.2122H385.699V383.781H391.658V18.2122Z" fill="#CCCCCC"/>
<path d="M505.326 382.178V568.001L536.27 618.656L538.625 622.509H660.722L663.189 382.178H505.326Z" fill="#E6E6E6"/>
<path opacity="0.1" d="M505.326 382.178V568.001L536.27 618.656L538.169 382.178H505.326Z" fill="black"/>
<path d="M210.566 377.221V563.045L179.622 613.701L177.267 617.553H55.17L52.703 377.221H210.566Z" fill="#E6E6E6"/>
<path opacity="0.1" d="M210.566 377.221V563.045L179.622 613.701L177.723 377.221H210.566Z" fill="black"/>
<path d="M700.188 373.506V384.655H36.67V368.55L98.335 336.34H645.923L700.188 373.506Z" fill="#E6E6E6"/>
<path opacity="0.1" d="M700.188 373.506V384.655H36.67V368.55L700.188 373.506Z" fill="black"/>
<path d="M131.635 429.252H102.035L89.702 420.581H145.201L131.635 429.252Z" fill="#3F3D56"/>
<path d="M131.635 465.178H102.035L89.702 456.507H145.201L131.635 465.178Z" fill="#3F3D56"/>
<path d="M131.635 515.971H102.035L89.702 507.298H145.201L131.635 515.971Z" fill="#3F3D56"/>
<path d="M131.635 566.762H102.035L89.702 558.09H145.201L131.635 566.762Z" fill="#3F3D56"/>
<path d="M584.257 434.207H613.857L626.19 425.536H570.691L584.257 434.207Z" fill="#3F3D56"/>
<path d="M584.257 470.133H613.857L626.19 461.462H570.691L584.257 470.133Z" fill="#3F3D56"/>
<path d="M584.257 520.926H613.857L626.19 512.254H570.691L584.257 520.926Z" fill="#3F3D56"/>
<path d="M584.257 571.717H613.857L626.19 563.045H570.691L584.257 571.717Z" fill="#3F3D56"/>
<path d="M479.821 128.606C480.695 128.606 481.403 127.894 481.403 127.017C481.403 126.139 480.695 125.427 479.821 125.427C478.947 125.427 478.239 126.139 478.239 127.017C478.239 127.894 478.947 128.606 479.821 128.606Z" fill="#F2F2F2"/>
<path d="M479.821 302.161C483.142 302.161 485.834 299.457 485.834 296.122C485.834 292.786 483.142 290.082 479.821 290.082C476.5 290.082 473.809 292.786 473.809 296.122C473.809 299.457 476.5 302.161 479.821 302.161Z" fill="#F2F2F2"/>
<path d="M83.6614 0.459185C81.9336 0.316686 80.2034 0.70492 78.7002 1.57244C77.2242 2.58777 71.2379 8.30343 70.2883 9.95865C66.6576 16.3628 66.7984 18.0029 60.91 22.3994C56.6211 25.5554 51.1683 29.4906 51.9021 35.3096C52.2892 37.2312 52.996 39.0736 53.9927 40.7593C57.9493 48.7821 68.7463 54.982 67.6843 64.1366C71.6153 57.5262 66.3573 54.2576 70.2883 47.6473C72.1603 44.4993 75.4124 40.9457 78.2388 42.9227C79.1852 43.5846 79.8066 44.7719 80.792 45.3527C83.1432 46.7386 85.6446 44.0891 87.7258 42.2124C94.9027 35.7409 105.109 37.4363 114.04 39.4526C118.256 40.4045 122.887 41.6534 125.379 45.7012C128.656 51.0231 122.266 56.7709 120.651 62.7878C120.52 63.3005 120.513 63.8377 120.633 64.3533C120.753 64.8689 120.996 65.3477 121.34 65.7488C121.684 66.1498 122.12 66.4611 122.61 66.656C123.1 66.8509 123.63 66.9237 124.154 66.8681C126.834 66.6026 130.008 66.385 130.167 65.2038C133.539 65.3243 137.67 64.9408 139.114 61.4144C139.556 60.0191 139.789 58.5659 139.807 57.102C140.337 51.1784 142.84 45.7743 144.498 40.1365C146.156 34.4986 146.877 27.8914 144.079 22.8928C151.5 39.4526 140.547 13.2633 139.114 11.9586C123.235 -3.47688 103.657 0.436273 83.6614 0.459185Z" fill="#3E2D20"/>
<path d="M71.1377 75.6993C71.1377 75.6993 74.5911 104.607 61.9286 106.919C49.2661 109.232 73.4399 148.546 73.4399 148.546L130.997 155.483L115.5 108.959C115.5 108.959 107.974 105.763 113.73 82.6371C119.485 59.5113 71.1377 75.6993 71.1377 75.6993Z" fill="#E8BEAC"/>
<path d="M36.028 572.325L40.633 635.921H64.806L57.9 572.325H36.028Z" fill="#E8BEAC"/>
<path d="M196.303 452.071L199.756 505.26L226.233 493.697L215.872 449.759L196.303 452.071Z" fill="#E8BEAC"/>
<path d="M14 328.779C14 328.779 15.0974 395.677 21.682 417.592C28.2667 439.507 27.1692 440.66 26.0718 444.12C24.9744 447.58 23.8769 445.274 23.8769 451.041C23.8769 456.808 21.6821 547.927 23.8769 556.001C26.0718 564.075 17.2923 577.916 23.8769 579.069C30.4615 580.222 61.1897 579.069 62.2872 572.149C63.3846 565.228 53.5077 562.921 57.8975 558.308C62.2872 553.694 68.8718 459.114 68.8718 459.114L84.2359 393.37L112.769 358.768H173.128L191.785 434.893C191.785 434.893 184.102 456.808 189.59 456.808C195.077 456.808 228 463.728 228 438.353C228 412.978 217.026 338.007 214.831 335.7C212.636 333.393 215.928 325.319 212.636 321.859C209.344 318.399 170.933 294.177 156.667 289.563C142.4 284.95 122.386 279.459 122.386 279.459L14 328.779Z" fill="#2F2E41"/>
<path d="M222.233 476.447C222.233 476.447 204.966 470.666 196.908 488.01C188.85 505.354 192.303 509.979 192.303 509.979C192.303 509.979 218.779 519.23 223.384 514.605C225.387 512.592 231.748 511.893 238.296 511.746C248.269 511.521 250.923 497.348 241.504 494.048C241.223 493.949 240.939 493.864 240.651 493.791C231.442 491.479 222.233 476.447 222.233 476.447Z" fill="#2F2E41"/>
<path d="M97.0383 94.7781C116.111 94.7781 131.572 79.2475 131.572 60.0895C131.572 40.9315 116.111 25.4008 97.0383 25.4008C77.9656 25.4008 62.5042 40.9315 62.5042 60.0895C62.5042 79.2475 77.9656 94.7781 97.0383 94.7781Z" fill="#E8BEAC"/>
<path d="M70.5 105.459C70.5 105.459 98.9404 120.335 110.5 106.459C122.06 92.5822 136.22 175.547 136.22 175.547L142 231.052L133.562 275.286C133.562 275.286 39.4495 312.857 25 315.459C10.5505 318.061 37 301.302 37 301.302C37 301.302 43.7432 205.034 43.7432 203.299C43.7432 201.565 70.5 105.459 70.5 105.459Z" fill="#F2F2F2"/>
<path d="M70 102.459C70 102.459 61.1722 92.5308 58.1215 99.4715C55.0709 106.412 26.5985 123.764 23.5479 123.764C20.4973 123.764 39.0675 216.391 35 227.959C40 260.459 2.19363 327.359 13.3792 334.3C24.5648 341.241 16.4298 327.359 27.6154 344.711C38.801 362.063 93.712 362.063 96.7626 355.122C99.8132 348.182 78.459 317.044 83.5433 268.459C88.6277 219.873 90.6614 131.862 83.5433 122.607C76.4252 113.353 70 102.459 70 102.459Z" fill="#545282"/>
<path d="M106 123.969L112.064 102.459C112.064 102.459 142.462 116.85 144.316 127.47C146.169 138.091 150.804 212.112 144.316 218.012C137.828 223.913 132.185 239.522 137.089 250.225C143.577 264.386 150.992 279.727 156.553 280.907C162.114 282.087 172.309 290.348 169.529 298.608C166.748 306.869 119.474 294.548 119.474 294.548C119.474 294.548 111.137 270.286 112.064 237.244C112.991 204.202 106 123.969 106 123.969Z" fill="#545282"/>
<path d="M137 235.459L109.373 287.492C109.373 287.492 69.083 329.118 92.1058 333.743C115.129 338.368 127.791 295.586 127.791 295.586L157.721 252.803L137 235.459Z" fill="#E8BEAC"/>
<path d="M85.3438 9.53526C83.9518 9.43166 82.5575 9.7033 81.3051 10.3221C80.1726 11.1529 79.2393 12.2273 78.5733 13.4668C75.5029 18.1061 71.5005 22.049 66.8232 25.0424C63.3318 27.2731 58.893 30.0545 59.4904 34.1673C59.8146 35.5462 60.3917 36.8525 61.1922 38.0191C64.4241 43.7469 65.7108 50.3762 64.8574 56.904L74.4575 42.8875C75.9814 40.6625 78.6287 38.1509 80.9296 39.5482C81.6999 40.0161 82.2058 40.8552 83.0079 41.2657C84.9219 42.2453 86.9581 40.3726 88.6524 39.0462C94.4946 34.4722 96.7299 41.4624 104 42.8875C107.432 43.5603 114.971 40.0266 117 42.8875C124.5 42.4586 112.5 30.3473 118 45.4586C117.5 46.4586 135.006 50.7433 133 53.9586C135.842 49.4026 132.893 56.1255 133 55.4586C135.745 55.5439 131.824 56.4511 133 53.9586C135.515 53.9586 131.033 50.6106 131.049 49.57C131.48 45.3832 133.518 41.5637 134.867 37.5789C136.217 33.5941 136.804 28.9241 134.526 25.3912C133.693 24.1941 132.687 23.1281 131.542 22.2279C118.616 11.3182 101.621 9.51907 85.3438 9.53526Z" fill="#3E2D20"/>
<path d="M134.288 122.459L143.941 125.328C143.941 125.328 166.404 189.75 161.224 233.838C156.044 277.925 152.936 268.644 152.936 268.644C152.936 268.644 144.648 247.76 126 252.401L134.288 122.459Z" fill="#545282"/>
<path d="M37.6228 608.516C34.8469 612.305 35.4035 617.722 32.9446 621.726C30.8131 625.196 26.7962 627.016 24.1302 630.092C23.2795 631.113 22.5211 632.209 21.864 633.366C19.3909 637.527 17.3807 642.86 19.8164 647.043C21.7758 650.409 25.8943 651.724 29.6714 652.62C34.4455 653.753 39.4058 654.66 44.2349 653.794C49.0641 652.928 53.7838 649.958 55.5056 645.344C55.844 644.184 56.2463 643.044 56.7107 641.928C59.3282 636.752 67.5382 636.696 70.217 631.552C72.0916 627.952 70.3684 623.6 68.6458 619.924L63.3847 608.697C61.6388 604.972 54.5611 607.114 50.8713 606.221C46.0591 605.057 41.0847 603.774 37.6228 608.516Z" fill="#2F2E41"/>
<path d="M3 267.553L51.3477 342.711C51.3477 342.711 81.2773 380.869 90.4863 363.525C99.6954 346.18 58.2545 317.273 58.2545 317.273L27.1738 259.459L3 267.553Z" fill="#E8BEAC"/>
<path d="M29.5722 126.776L21.6476 124.459C21.6476 124.459 5.7984 130.252 1.83611 154.585C-2.12618 178.917 0.845531 276.247 5.7984 277.405C10.7513 278.564 30.2606 260.458 33.3834 264.297C36.5062 268.136 26.6004 248.438 29.5721 238.01C32.5438 227.582 29.5722 126.776 29.5722 126.776Z" fill="#545282"/>
<path d="M145.313 72.2683L146.463 62.0919C146.76 59.5242 146.346 56.9023 145.295 54.6902C144.623 53.2535 143.709 52.033 142.621 51.121C141.533 50.2091 140.3 49.6295 139.015 49.4262L137.326 49.1075C136.865 49.017 136.394 49.0462 135.942 49.1933C135.49 49.3404 135.064 49.6025 134.691 49.9645C134.316 50.324 133.999 50.7765 133.759 51.2957C133.52 51.815 133.362 52.3907 133.295 52.9898L130.652 76.4342C130.546 77.3902 130.674 78.3658 131.018 79.2229C131.363 80.08 131.906 80.7753 132.572 81.2103C132.768 81.3424 132.974 81.4489 133.187 81.528C133.34 81.5851 133.496 81.6287 133.653 81.6585L135.539 82.0221C136.689 82.2461 137.862 82.163 138.985 81.7779C140.109 81.3929 141.159 80.714 142.073 79.7829C142.27 79.5797 142.463 79.3679 142.647 79.1454C144.108 77.3085 145.047 74.8854 145.313 72.2683Z" fill="#170707"/>
<path d="M136.187 49.1254C135.644 49.2471 135.131 49.5347 134.691 49.9643C134.316 50.3239 133.999 50.7763 133.759 51.2956C133.52 51.8148 133.362 52.3906 133.295 52.9896L130.652 76.434C130.546 77.39 130.674 78.3656 131.018 79.2227C131.363 80.0798 131.906 80.7751 132.572 81.21L136.187 49.1254Z" fill="white"/>
<path d="M145.313 72.2683L146.463 62.0919C146.76 59.5242 146.346 56.9023 145.295 54.6902L142.667 78.0164C142.622 78.3899 142.616 78.7695 142.647 79.1454C144.108 77.3084 145.047 74.8854 145.313 72.2683V72.2683Z" fill="#3F3D56"/>
<path d="M135.668 76.3008C136.405 76.4417 137.248 74.3851 137.55 71.7073C137.852 69.0295 137.498 66.7445 136.761 66.6037C136.023 66.4628 135.18 68.5193 134.878 71.1971C134.576 73.8749 134.93 76.1599 135.668 76.3008Z" fill="#3F3D56"/>
<path d="M136.796 63.6105C137.534 63.7513 138.377 61.6948 138.678 59.017C138.98 56.3392 138.627 54.0542 137.889 53.9133C137.151 53.7724 136.309 55.829 136.007 58.5068C135.705 61.1846 136.058 63.4696 136.796 63.6105Z" fill="#3F3D56"/>
<path d="M145.613 72.0093C146.35 72.1502 147.193 70.0936 147.495 67.4158C147.797 64.738 147.443 62.453 146.706 62.3122C145.968 62.1713 145.125 64.2279 144.823 66.9057C144.522 69.5835 144.875 71.8684 145.613 72.0093Z" fill="#3F3D56"/>
<path d="M62.4689 64.1616L63.2484 41.1345C63.2782 40.3043 63.1181 39.481 62.7883 38.7678C62.4585 38.0547 61.9736 37.4835 61.3946 37.1261C61.2305 37.0272 61.061 36.9443 60.8875 36.8781C60.6424 36.7876 60.39 36.7347 60.1355 36.7205L58.4815 36.626C56.3518 36.505 54.273 37.4843 52.7013 39.349C51.1296 41.2138 50.1934 43.8116 50.0982 46.5724L49.7463 56.9018C49.6507 59.3288 50.1725 61.7303 51.2316 63.7372C51.4045 64.0569 51.5918 64.363 51.7927 64.6538C52.5059 65.686 53.3713 66.5228 54.3376 67.1146C55.304 67.7065 56.3518 68.0415 57.4192 68.0998L59.068 68.1923C59.5029 68.2216 59.9377 68.1337 60.3449 67.9344C60.9478 67.6499 61.4717 67.1393 61.8499 66.4675C62.2281 65.7957 62.4436 64.9931 62.4689 64.1616Z" fill="#170707"/>
<path d="M54.0059 57.0202C54.7508 57.0637 55.4287 54.9069 55.5201 52.2029C55.6114 49.4989 55.0816 47.2717 54.3368 47.2283C53.5919 47.1849 52.914 49.3417 52.8226 52.0456C52.7313 54.7496 53.2611 56.9768 54.0059 57.0202Z" fill="#3F3D56"/>
<path d="M48.3683 57.0959C49.1132 57.1393 49.7911 54.9825 49.8825 52.2785C49.9738 49.5745 49.444 47.3473 48.6991 47.3039C47.9543 47.2605 47.2764 49.4173 47.185 52.1212C47.0937 54.8252 47.6235 57.0524 48.3683 57.0959Z" fill="#3F3D56"/>
<path d="M61.7674 64.176L62.5469 41.1489C62.5776 40.2502 62.4032 39.3593 62.0454 38.5879C61.6876 37.8165 61.1624 37.1988 60.5355 36.8121L59.4673 68.2616C60.1194 67.9519 60.6859 67.3986 61.0952 66.6714C61.5046 65.9443 61.7385 65.0759 61.7674 64.176V64.176Z" fill="white"/>
<path d="M50.9734 42.6457C50.9959 42.0056 50.9135 41.3665 50.7317 40.7704C49.7517 42.4458 49.1909 44.4703 49.1244 46.5723L48.7725 56.9016C48.6769 59.3287 49.1988 61.7302 50.2578 63.7371L50.9734 42.6457Z" fill="#3F3D56"/>
<path d="M584.339 224.107H500.647V223.688C500.647 223.362 500.511 223.049 500.27 222.819C500.029 222.588 499.702 222.459 499.36 222.459H463.985C463.643 222.459 463.316 222.588 463.075 222.819C462.834 223.049 462.698 223.362 462.698 223.688V224.107H378.661C377.16 224.107 375.72 224.677 374.658 225.692C373.596 226.707 373 228.083 373 229.518V339.048C373 340.483 373.596 341.859 374.658 342.874C375.72 343.889 377.16 344.459 378.661 344.459H584.339C585.84 344.459 587.28 343.889 588.342 342.874C589.404 341.859 590 340.483 590 339.048V229.518C590 228.083 589.404 226.707 588.342 225.692C587.28 224.677 585.84 224.107 584.339 224.107Z" fill="#3F3D56"/>
<path d="M382.53 235.459C382.39 235.459 382.255 235.512 382.155 235.607C382.056 235.702 382 235.831 382 235.966V339.952C382 340.086 382.056 340.215 382.156 340.31C382.255 340.405 382.39 340.458 382.53 340.459H579.47C579.61 340.459 579.745 340.405 579.845 340.31C579.944 340.215 580 340.086 580 339.952V287.959V235.966C580 235.831 579.944 235.702 579.845 235.607C579.745 235.512 579.61 235.459 579.47 235.459H382.53Z" fill="#F2F2F2"/>
<path d="M481 230.459C482.105 230.459 483 229.563 483 228.459C483 227.354 482.105 226.459 481 226.459C479.895 226.459 479 227.354 479 228.459C479 229.563 479.895 230.459 481 230.459Z" fill="#605959"/>
<path d="M587.645 337.938H569.111V334.773C569.111 334.6 568.993 334.459 568.846 334.459H562.492C562.345 334.459 562.227 334.6 562.227 334.773V337.938H558.255V334.773C558.255 334.6 558.137 334.459 557.991 334.459H551.636C551.49 334.459 551.371 334.6 551.371 334.773V337.938H547.4V334.773C547.4 334.6 547.281 334.459 547.135 334.459H540.78C540.634 334.459 540.515 334.6 540.515 334.773V337.938H536.544V334.773C536.544 334.6 536.425 334.459 536.279 334.459H529.924C529.778 334.459 529.66 334.6 529.66 334.773V337.938H525.688V334.773C525.688 334.6 525.569 334.459 525.423 334.459H519.069C518.922 334.459 518.804 334.6 518.804 334.773V337.938H514.832V334.773C514.832 334.6 514.714 334.459 514.567 334.459H508.213C508.067 334.459 507.948 334.6 507.948 334.773V337.938H503.976V334.773C503.976 334.6 503.858 334.459 503.712 334.459H453.934C453.788 334.459 453.669 334.6 453.669 334.773V337.938H449.697V334.773C449.697 334.6 449.579 334.459 449.433 334.459H443.078C442.932 334.459 442.813 334.6 442.813 334.773V337.938H438.842V334.773C438.842 334.6 438.723 334.459 438.577 334.459H432.222C432.076 334.459 431.957 334.6 431.957 334.773V337.938H427.986V334.773C427.986 334.6 427.867 334.459 427.721 334.459H421.366C421.22 334.459 421.102 334.6 421.102 334.773V337.938H417.13V334.773C417.13 334.6 417.011 334.459 416.865 334.459H410.511C410.364 334.459 410.246 334.6 410.246 334.773V337.938H406.274V334.773C406.274 334.6 406.156 334.459 406.009 334.459H399.655C399.509 334.459 399.39 334.6 399.39 334.773V337.938H395.418V334.773C395.418 334.6 395.3 334.459 395.154 334.459H388.799C388.653 334.459 388.534 334.6 388.534 334.773V337.938H376.355C372.845 337.938 370 341.319 370 345.491V348.906C370 353.077 372.845 356.459 376.355 356.459H587.645C591.155 356.459 594 353.077 594 348.906V345.491C594 341.319 591.155 337.938 587.645 337.938Z" fill="#3F3D56"/>
<path d="M459.236 256.708H434.858V263.749H459.236V256.708Z" fill="#4E3F3F"/>
<path d="M543.653 256.708H535.076V263.749H543.653V256.708Z" fill="#4E3F3F"/>
<path d="M560.808 256.708H552.231V263.749H560.808V256.708Z" fill="#4E3F3F"/>
<path d="M526.048 256.708H467.813V263.749H526.048V256.708Z" fill="#4E3F3F"/>
<path d="M428.538 302.207H404.161V309.248H428.538V302.207Z" fill="#4E3F3F"/>
<path d="M512.956 302.207H504.379V309.248H512.956V302.207Z" fill="#4E3F3F"/>
<path d="M530.11 302.207H521.533V309.248H530.11V302.207Z" fill="#4E3F3F"/>
<path d="M495.35 302.207H437.115V309.248H495.35V302.207Z" fill="#4E3F3F"/>
<path d="M529.208 272.416H504.83V279.457H529.208V272.416Z" fill="#4E3F3F"/>
<path d="M562.162 272.416H537.785V279.457H562.162V272.416Z" fill="#4E3F3F"/>
<path d="M412.738 272.416H404.161V279.457H412.738V272.416Z" fill="#4E3F3F"/>
<path d="M429.893 272.416H421.315V279.457H429.893V272.416Z" fill="#4E3F3F"/>
<path d="M496.705 272.416H438.47V279.457H496.705V272.416Z" fill="#4E3F3F"/>
<path d="M478.647 287.582H454.27V294.624H478.647V287.582Z" fill="#4E3F3F"/>
<path d="M445.693 287.582H421.315V294.624H445.693V287.582Z" fill="#4E3F3F"/>
<path d="M412.738 287.582H404.161V294.624H412.738V287.582Z" fill="#4E3F3F"/>
<path d="M562.162 287.582H553.585V294.624H562.162V287.582Z" fill="#4E3F3F"/>
<path d="M545.008 287.582H486.773V294.624H545.008V287.582Z" fill="#4E3F3F"/>
</svg>
